<svg width="17" height="17" fill="none" xmlns="http://www.w3.org/2000/svg"><path d="M8.5 0C3.815 0 0 3.612 0 8.053a7.71 7.71 0 001.351 4.355c-.167 1.95-.616 3.397-1.267 4.083a.31.31 0 00-.054.344.282.282 0 00.293.162c.115-.017 2.78-.42 4.709-1.592 1.094.465 2.26.7 3.469.7 4.686 0 8.5-3.612 8.5-8.052C17 3.613 13.186 0 8.5 0zM4.535 9.246c-.625 0-1.133-.535-1.133-1.193S3.909 6.86 4.534 6.86s1.133.535 1.133 1.193-.508 1.193-1.133 1.193zm3.967 0c-.626 0-1.134-.535-1.134-1.193S7.875 6.86 8.501 6.86c.625 0 1.133.535 1.133 1.193S9.126 9.246 8.5 9.246zm3.966 0c-.625 0-1.133-.535-1.133-1.193s.508-1.193 1.133-1.193 1.133.535 1.133 1.193-.508 1.193-1.133 1.193z" fill="#9DB4FD"/></svg>