<svg width="30" height="30" fill="none" xmlns="http://www.w3.org/2000/svg"><path d="M0 15C0 6.716 6.716 0 15 0c8.284 0 15 6.716 15 15 0 8.284-6.716 15-15 15-8.284 0-15-6.716-15-15z" fill="#365EDC"/><path d="M15 7c-4.421 0-8 3.578-8 8 0 1.403.366 2.774 1.06 3.982l-1.03 3.201a.625.625 0 00.787.787l3.2-1.03A7.982 7.982 0 0015 23c4.421 0 8-3.578 8-8 0-4.421-3.578-8-8-8zm0 14.75a6.73 6.73 0 01-3.573-1.023.625.625 0 00-.523-.065l-2.31.745.744-2.311a.625.625 0 00-.065-.523A6.732 6.732 0 018.25 15 6.758 6.758 0 0115 8.25 6.758 6.758 0 0121.75 15 6.758 6.758 0 0115 21.75z" fill="#fff"/><path d="M15 10.6c-1.323 0-2.4 1.102-2.4 2.456 0 .37.293.67.654.67.36 0 .653-.3.653-.67 0-.616.49-1.118 1.093-1.118s1.093.502 1.093 1.118c0 .617-.49 1.119-1.093 1.119-.36 0-.654.3-.654.669v1.51c0 .369.293.669.654.669.36 0 .654-.3.654-.67v-.933a2.452 2.452 0 001.746-2.364c0-1.354-1.077-2.456-2.4-2.456zm0 6.929a.925.925 0 00-.914.936c0 .516.41.935.914.935a.925.925 0 00.914-.935.925.925 0 00-.914-.936z" fill="#fff"/></svg>