<svg width="16" height="16" fill="none" xmlns="http://www.w3.org/2000/svg"><path d="M8 0C3.585 0 0 3.579 0 7.996a8 8 0 1016 0A7.996 7.996 0 008 0zm.57 12.447a.942.942 0 01-.644.249.974.974 0 01-.66-.245c-.189-.164-.283-.392-.283-.686 0-.26.091-.48.273-.657a.922.922 0 01.67-.267c.26 0 .48.089.658.267a.894.894 0 01.266.657c0 .29-.093.517-.28.682zm2.318-5.743a2.828 2.828 0 01-.51.685 35.85 35.85 0 01-1.057.97c-.14.129-.253.242-.338.338a1.377 1.377 0 00-.189.267 1.383 1.383 0 00-.096.242c-.023.08-.057.223-.103.425-.078.43-.324.645-.738.645a.756.756 0 01-.543-.21c-.146-.141-.22-.35-.22-.627 0-.347.054-.648.162-.902a2.28 2.28 0 01.428-.67c.178-.193.417-.421.72-.686.264-.231.455-.406.573-.524.118-.118.217-.25.298-.394a.948.948 0 00.12-.471c0-.331-.122-.61-.368-.837-.246-.228-.564-.342-.953-.342-.455 0-.79.115-1.005.345-.215.23-.396.567-.545 1.014-.141.467-.408.7-.8.7a.788.788 0 01-.587-.244c-.159-.163-.239-.34-.239-.53 0-.393.127-.791.379-1.195.252-.403.62-.737 1.104-1.001.484-.265 1.048-.397 1.693-.397.6 0 1.13.11 1.588.332.46.22.814.522 1.064.902.25.38.375.794.375 1.24 0 .352-.07.66-.213.925z" fill="#9DB4FD"/></svg>