<svg width="38" height="38" fill="none" xmlns="http://www.w3.org/2000/svg"><path d="M20.485 17.07h-2.969v2.97h2.969v-2.97z" fill="#365EDC"/><path d="M33.547 2.969h-1.78V0h-2.97v2.969H9.204V0h-2.97v2.969h-1.78A4.458 4.458 0 000 7.422v26.125A4.458 4.458 0 004.454 38h15.271a13.091 13.091 0 01-2.647-2.969H4.454a1.486 1.486 0 01-1.485-1.484V13.953h32.063v3.125A13.09 13.09 0 0138 19.724V7.422a4.458 4.458 0 00-4.454-4.453zm1.485 8.015H2.969V7.422c0-.819.666-1.484 1.485-1.484h1.78v2.968h2.97V5.937h19.593v2.97h2.97v-2.97h1.78c.819 0 1.485.666 1.485 1.485v3.562z" fill="#365EDC"/><path d="M27.981 17.96c-5.525 0-10.02 4.496-10.02 10.02 0 5.525 4.495 10.02 10.02 10.02 5.525 0 10.02-4.495 10.02-10.02 0-5.524-4.495-10.02-10.02-10.02zm0 17.071a7.059 7.059 0 01-7.05-7.05 7.059 7.059 0 017.05-7.051 7.059 7.059 0 017.05 7.05 7.059 7.059 0 01-7.05 7.051z" fill="#365EDC"/><path d="M29.391 23.008h-2.969v6.457h5.493v-2.969H29.39v-3.488zm-14.844 0H11.58v2.969h2.968v-2.97zm-5.937 0H5.64v2.969h2.97v-2.97zm0-5.938H5.64v2.97h2.97v-2.97zm0 11.875H5.64v2.97h2.97v-2.97zm5.937-11.875H11.58v2.97h2.968v-2.97zm0 11.875H11.58v2.97h2.968v-2.97z" fill="#365EDC"/></svg>