<svg width="44" height="34" fill="none" xmlns="http://www.w3.org/2000/svg"><path d="M5.874 28.03c-.77-.062-1.478.038-2.2-.087A4.446 4.446 0 01.01 23.555c-.013-6.002-.013-12.003 0-18.004C.022 2.938 1.952 1.013 4.542 1c6.524-.013 13.036 0 19.56 0h9.395c2.749 0 4.618 1.925 4.63 4.739V7h1.38c2.566.013 4.484 1.963 4.484 4.589.013 5.926.013 11.84 0 17.766 0 2.688-1.905 4.638-4.532 4.638h-29.09c-2.565 0-4.47-1.962-4.483-4.588-.012-.45-.012-.9-.012-1.375zM41 21H8.818c0 3.038-.024 5.58 0 8.593 0 .813.684 1.413 1.527 1.413H39.52c.928 0 1.527-.637 1.54-1.6v-2.338c0-2.176-.06-3.88-.06-6.068zM5.873 25.005V11.777c0-.275 0-.562.037-.837C6.277 8.564 8.049 7 10.406 7h24.276c.159 0 .33.05.513-.05V5.74c0-1.15-.574-1.738-1.686-1.738H4.603c-1.087 0-1.661.587-1.661 1.7V23.38c0 1.012.598 1.625 1.6 1.625h1.332zM41.059 12.99v-1.125c0-1.325-.513-1.85-1.796-1.85H10.37c-.843 0-1.49.55-1.552 1.337-.036.538-.012 1.088-.012 1.638h32.253zm-.012 3.038H8.83c0 .5-.012 1.491-.012 1.966 10.751 0 21.444.006 32.183.006 0-.488.046-1.472.046-1.972z" fill="#365EDC"/><path d="M35.117 29.025c-.697 0-1.405.013-2.102 0-.88-.012-1.527-.675-1.515-1.525.013-.838.66-1.463 1.515-1.475 1.43-.013 2.86-.013 4.3 0 .856 0 1.504.65 1.516 1.475.012.85-.636 1.513-1.515 1.525h-2.2z" fill="#365EDC"/></svg>