<svg width="45" height="51" fill="none" xmlns="http://www.w3.org/2000/svg"><path d="M42 42.292V20.79l2.561-2.55a1.49 1.49 0 000-2.114 1.504 1.504 0 00-2.121 0l-1.05 1.047a4.504 4.504 0 00-3.89-2.232h-4.136l-3.011-2.999C33.498 11.76 36 9.154 36 5.977 36 2.68 33.309 0 30 0s-6 2.681-6 5.977a5.92 5.92 0 00.836 3.039 4.492 4.492 0 00-3.04 1.883c-.434.627-7.428 14.81-11.083 22.171H4.5c-2.48 0-4.5 2.011-4.5 4.483 0 2.471 2.02 4.482 4.5 4.482h9a4.48 4.48 0 004.026-2.477l3.753-7.478L24 33.958v6.583c0 .524.092 1.027.259 1.494H19.5c-2.48 0-4.5 2.011-4.5 4.483C15 48.989 17.02 51 19.5 51c2.482 0 4.5-2.01 4.5-4.482 0-.524-.091-1.037-.258-1.505h12.516c-.166.468-.258.98-.258 1.505C36 48.989 38.02 51 40.5 51c2.482 0 4.5-2.01 4.5-4.482a4.49 4.49 0 00-3-4.226zm-22.5 5.72c-.827 0-1.5-.67-1.5-1.494a1.5 1.5 0 013 0c0 .823-.672 1.494-1.5 1.494zM30 2.988c1.655 0 3 1.34 3 2.989a2.998 2.998 0 01-3 2.988c-1.654 0-3-1.34-3-2.988a2.998 2.998 0 013-2.989zM14.842 38.221a1.49 1.49 0 01-1.341.826h-9c-.828 0-1.5-.67-1.5-1.494s.672-1.494 1.5-1.494h7.145a1.5 1.5 0 001.345-.832l3.312-6.673c.313.314.271.262 2.455 1.866l-3.916 7.801zm15.159 2.32c0 .824-.673 1.494-1.5 1.494s-1.5-.67-1.5-1.494v-7.366c0-.49-.242-.949-.646-1.228L18.69 26.66c-.585-.406-.795-1.003-.647-1.612 1.519-3.059 6.042-12.19 6.224-12.452a1.506 1.506 0 012.293-.204l5.12 5.101c.282.28.664.438 1.061.438H37.5a1.499 1.499 0 011.493 1.629l-1.358 1.352c-.045.004-.09.007-.136.007h-6c-.394 0-.78-.16-1.06-.438l-3.057-3.045a1.504 1.504 0 00-2.402.388l-2.955 5.886a1.49 1.49 0 00.485 1.895l6.797 4.712a1.49 1.49 0 01.693 1.26v8.965zm2.741 1.494a4.43 4.43 0 00.259-1.494v-8.965a4.468 4.468 0 00-1.99-3.72L25.29 23.89l1.443-2.876 1.586 1.58a4.47 4.47 0 003.181 1.302h3.203a1.503 1.503 0 00.237 1.814 1.504 1.504 0 002.121 0l1.94-1.932v18.257h-6.258zm7.759 5.977c-.828 0-1.5-.67-1.5-1.494s.672-1.495 1.5-1.495c.827 0 1.5.67 1.5 1.495a1.5 1.5 0 01-1.5 1.494zM16.5 8.965h-15c-.828 0-1.5.669-1.5 1.494s.672 1.494 1.5 1.494h15c.829 0 1.5-.669 1.5-1.494s-.671-1.494-1.5-1.494zm-12 11.953h-3c-.828 0-1.5.669-1.5 1.494s.672 1.494 1.5 1.494h3c.829 0 1.5-.669 1.5-1.494s-.671-1.494-1.5-1.494zm6-5.977h-9c-.828 0-1.5.67-1.5 1.495 0 .825.672 1.494 1.5 1.494h9c.829 0 1.5-.67 1.5-1.494 0-.826-.671-1.495-1.5-1.495z" fill="#EDF2FC"/></svg>