<svg width="40" height="40" fill="none" xmlns="http://www.w3.org/2000/svg"><path d="M20.001 0c-11.053 0-20 8.945-20 20 0 3.508.915 6.934 2.652 9.956L.076 37.958a1.562 1.562 0 001.967 1.967l8.002-2.577A19.954 19.954 0 0020 40c11.053 0 20-8.945 20-20C40 8.947 31.055 0 20 0zm0 36.875c-3.169 0-6.257-.884-8.932-2.557a1.564 1.564 0 00-1.308-.162l-5.776 1.86 1.86-5.776a1.564 1.564 0 00-.163-1.308A16.829 16.829 0 013.126 20c0-9.305 7.57-16.875 16.875-16.875S36.876 10.695 36.876 20s-7.57 16.875-16.875 16.875z" fill="#EDF2FC"/><path d="M20.001 9c-3.308 0-6 2.755-6 6.141 0 .923.732 1.672 1.634 1.672.902 0 1.634-.748 1.634-1.672 0-1.542 1.225-2.796 2.732-2.796 1.506 0 2.732 1.254 2.732 2.796 0 1.542-1.226 2.796-2.732 2.796-.902 0-1.634.749-1.634 1.672v3.775c0 .923.732 1.672 1.634 1.672.902 0 1.634-.749 1.634-1.672V21.05C24.152 20.32 26 17.948 26 15.14c0-3.386-2.692-6.141-6-6.141zm0 17.322c-1.262 0-2.286 1.047-2.286 2.34 0 1.29 1.024 2.338 2.286 2.338s2.286-1.047 2.286-2.338c0-1.293-1.024-2.34-2.286-2.34z" fill="#EDF2FC"/></svg>