<svg width="38" height="35" fill="none" xmlns="http://www.w3.org/2000/svg"><path d="M8.833 11.939a2.97 2.97 0 00-2.97 2.966v11.197a2.97 2.97 0 002.97 2.966h5.64a2.97 2.97 0 002.969-2.966V14.905a2.97 2.97 0 00-2.969-2.966h-5.64zm5.64 14.163h-5.64V14.905h5.64l.002 11.197h-.002zM31.99 20.54c0 .82-.665 1.483-1.485 1.483h-8.609a1.484 1.484 0 110-2.966h8.61c.82 0 1.484.664 1.484 1.483zm0 5.636c0 .819-.665 1.483-1.485 1.483h-8.609a1.484 1.484 0 110-2.966h8.61c.82 0 1.484.664 1.484 1.483zm0-11.271c0 .819-.665 1.483-1.485 1.483h-8.609a1.484 1.484 0 110-2.966h8.61c.82 0 1.484.663 1.484 1.483zM33.547 0H4.454A4.456 4.456 0 000 4.45v24.618C0 32.338 2.664 35 5.938 35h26.125c3.274 0 5.938-2.661 5.938-5.932a1.484 1.484 0 00-2.97 0 2.97 2.97 0 01-2.968 2.966H5.938a2.97 2.97 0 01-2.969-2.966V8.972h32.063v12.68a1.484 1.484 0 002.969 0V4.45A4.456 4.456 0 0033.547 0zm-6.011 2.966c.818 0 1.484.665 1.484 1.483a1.485 1.485 0 01-2.969 0c0-.818.666-1.483 1.485-1.483zm7.422 1.483a1.485 1.485 0 01-2.97 0 1.485 1.485 0 012.97 0zm-31.989 0c0-.818.666-1.483 1.485-1.483h18.884a4.422 4.422 0 00.027 3.04H2.969V4.45z" fill="#EDF2FC"/></svg>