<svg width="38" height="38" fill="none" xmlns="http://www.w3.org/2000/svg"><path d="M36.193 33.876a1.486 1.486 0 00-1.153 1.156h-8.307a4.312 4.312 0 014.03-2.82h.077c.013 0 .026-.003.04-.003a4.457 4.457 0 004.374-4.451 4.458 4.458 0 00-4.453-4.453 4.458 4.458 0 00-4.453 4.453c0 .918.28 1.773.758 2.483a7.34 7.34 0 00-2.205 1.99 7.346 7.346 0 00-2.206-1.99c.479-.71.759-1.565.759-2.483A4.458 4.458 0 0019 23.305a4.458 4.458 0 00-4.453 4.453c0 .918.28 1.773.758 2.483a7.343 7.343 0 00-2.205 1.99 7.342 7.342 0 00-2.205-1.99c.478-.71.758-1.565.758-2.483A4.458 4.458 0 007.2 23.305a4.458 4.458 0 00-4.453 4.453c0 .918.28 1.773.758 2.483a7.277 7.277 0 00-3.452 4.787A2.464 2.464 0 002.463 38h33.074a2.466 2.466 0 002.411-2.972 1.484 1.484 0 00-1.755-1.152zm-17.231-1.665h.077a4.312 4.312 0 014.03 2.82h-8.137a4.312 4.312 0 014.03-2.82zM30.8 26.274a1.485 1.485 0 010 2.968 1.486 1.486 0 01-1.484-1.484c0-.819.666-1.484 1.484-1.484zm-11.8 0c.818 0 1.484.665 1.484 1.484 0 .818-.666 1.484-1.485 1.484a1.486 1.486 0 01-1.484-1.484c0-.819.666-1.484 1.485-1.484zm-11.801 0c.818 0 1.484.665 1.484 1.484 0 .818-.666 1.484-1.484 1.484a1.486 1.486 0 01-1.485-1.484c0-.819.666-1.484 1.485-1.484zM3.13 35.032a4.313 4.313 0 014.03-2.82h.078a4.313 4.313 0 014.03 2.82H3.13zM15.335 19.65c.452.26.948.39 1.444.39.5 0 .999-.131 1.454-.395l6.371-3.698a2.877 2.877 0 001.447-2.514c0-1.05-.54-1.99-1.447-2.515l-6.371-3.697a2.865 2.865 0 00-2.899-.005 2.877 2.877 0 00-1.455 2.52v7.394c0 1.053.544 1.995 1.456 2.52zm1.513-9.8l6.175 3.582-6.175 3.584V9.85zM38 5.938v14.027c0 .642-.102 1.275-.304 1.88a1.485 1.485 0 01-2.816-.94c.1-.301.151-.618.151-.94V5.938a2.972 2.972 0 00-2.968-2.97H5.938a2.972 2.972 0 00-2.969 2.97v14.027c0 .322.051.639.152.94a1.484 1.484 0 01-2.816.94A5.932 5.932 0 010 19.965V5.938A5.944 5.944 0 015.938 0h26.125A5.944 5.944 0 0138 5.938z" fill="#EDF2FC"/></svg>