<svg width="32" height="32" fill="none" xmlns="http://www.w3.org/2000/svg"><path d="M30.27 5.943a2.225 2.225 0 00-2.144-.925L5.722 8.23a2.212 2.212 0 00-1.829 1.586 2.211 2.211 0 00.687 2.321c.05.043.103.08.16.113l5.954 3.396-1.18 6.851c-.155.9.251 1.783 1.035 2.251a2.177 2.177 0 002.478-.159l2.623-2.078 2.756 6.024a2.214 2.214 0 001.94 1.395 2.211 2.211 0 002.109-1.188 1.03 1.03 0 00.048-.105l1.25-3.212a1.016 1.016 0 00-1.893-.736l-1.22 3.136a.187.187 0 01-.174.078.19.19 0 01-.177-.13 1.042 1.042 0 00-.025-.058l-3.053-6.674 7.747-9.856a1.015 1.015 0 00-1.15-1.58L11.9 13.995l-6.035-3.442a.19.19 0 01-.022-.168.19.19 0 01.167-.145l22.405-3.212a.19.19 0 01.195.084c.047.068.052.14.013.214a1.01 1.01 0 00-.048.106l-4.888 12.56a1.016 1.016 0 001.893.736l4.87-12.514c.36-.735.294-1.6-.18-2.272zm-9.128 6.81l-5.866 7.463-3.508 2.779c-.027.02-.086.064-.177.01-.093-.056-.08-.131-.075-.163l1.202-6.983 8.424-3.106z" fill="#fff"/></svg>