<svg width="24" height="24" fill="none" xmlns="http://www.w3.org/2000/svg"><path d="M17.508 14.307l-.01.075c-2.199-1.096-2.429-1.242-2.713-.816-.197.295-.77.964-.944 1.162-.175.195-.348.21-.646.075-.3-.15-1.263-.465-2.402-1.485-.889-.795-1.485-1.77-1.66-2.07-.294-.506.32-.578.878-1.634.1-.21.049-.375-.026-.524-.075-.15-.672-1.62-.922-2.206-.24-.584-.487-.51-.672-.51-.576-.05-.997-.042-1.368.344-1.614 1.774-1.207 3.604.174 5.55 2.714 3.552 4.16 4.206 6.804 5.114.715.227 1.366.195 1.88.121.575-.09 1.767-.72 2.017-1.426.255-.705.255-1.29.18-1.425-.075-.135-.27-.21-.57-.345z" fill="#fff"/><path d="M20.52 3.45C12.832-3.984.106 1.406.101 11.892c0 2.096.55 4.14 1.595 5.945L0 24l6.335-1.652c7.906 4.27 17.662-1.4 17.665-10.449 0-3.176-1.24-6.165-3.494-8.41l.014-.04zm1.483 8.416c-.006 7.633-8.386 12.4-15.013 8.504l-.36-.214-3.75.975 1.005-3.645-.239-.375c-4.124-6.565.614-15.145 8.427-15.145a9.866 9.866 0 017.02 2.91 9.788 9.788 0 012.91 6.99z" fill="#fff"/></svg>