<svg width="48" height="48" fill="none" xmlns="http://www.w3.org/2000/svg"><path d="M48 37.688v9.274c-.237.488-.587.863-1.124 1.025H1.126C.562 47.8.175 47.438 0 46.862V36.837c.95-1.887 1.913-3.762 2.838-5.662.337-.7.85-1 1.637-1 3.675.012 7.338.012 11.013.012.2 0 .388.013.575-.125 2-1.4 4.225-2.012 6.663-1.937.45.012.9 0 1.362 0 0-.8-.012-1.55 0-2.288 0-.212-.113-.3-.25-.412-2.663-2.05-3.975-4.762-3.975-8.125v-4.238c-.75-.324-1-.925-.938-1.712.013-.188 0-.375 0-.563.026-5.1 3.488-9.4 8.463-10.537.362-.087.762-.05 1.1-.25h2.35c.012.075.075.088.137.088 4.213.587 7.113 2.874 8.776 6.762.474 1.1.65 2.263.75 3.412.05.025.075.038.087.038 1.875 0 3.75.025 5.625-.013.887-.012 1.5.275 1.788 1.138v.65c-.375.813-1.013 1.063-1.888 1.05-2.05-.037-4.087-.012-6.138-.012-.137 0-.275-.05-.412.062v4.113c-.013 3.35-1.325 6.075-3.975 8.125-.1.075-.238.137-.238.312v2.387c.713 0 1.363-.012 2.026 0 4.962.063 9.275 3.563 10.375 8.413.075.4.05.813.25 1.163zm-12.724-6.713c-.688 3.15-3.176 4.563-5.313 4.65a5.496 5.496 0 01-3.4-.975c-1.313-.9-2.087-2.15-2.4-3.7-1.725-.012-3.438-.137-5.05.65.075.137.125.262.188.387.725 1.463 1.45 2.926 2.187 4.388.188.362.262.725.262 1.125-.012 2.4 0 4.813 0 7.212 0 .15-.037.313.038.45h23.4c0-2.15.037-4.274-.013-6.387-.062-2.688-1.224-4.825-3.412-6.4-1.95-1.425-4.188-1.563-6.487-1.4zM22.688 13.137c0 1.613-.012 3.175 0 4.738 0 .325.05.65.113.975.7 3.537 3.962 6.012 7.487 5.688a7.06 7.06 0 006.45-7.038c.013-1.337 0-2.688 0-4.025 0-.112.05-.25-.05-.338h-14zM2.825 45.163h16.088V38.65H2.825v6.513zm34.826-34.875c-.138-4.176-3.85-7.588-8.176-7.463-4.6.137-7.587 3.938-7.675 7.462h15.85zM18.063 35.8c-.425-.837-.825-1.612-1.188-2.4-.137-.313-.312-.413-.662-.413-3.55.013-7.088.013-10.638 0-.387 0-.575.125-.725.463-.3.688-.662 1.337-.987 2.012-.05.1-.175.2-.075.338h14.275zm8.85-8.837c0 1.037-.012 2.037 0 3.037.012 1.5 1.15 2.712 2.6 2.813 1.487.1 2.85-.95 2.988-2.438.1-1.113.025-2.238.025-3.387-1.888.512-3.738.537-5.613-.026z" fill="#EDF2FC"/><path d="M38.438 37.962c.612 0 1.212-.012 1.825 0 .825.013 1.45.613 1.462 1.388.013.8-.625 1.413-1.474 1.425h-3.6c-.863 0-1.488-.612-1.476-1.413 0-.8.626-1.387 1.5-1.4h1.763z" fill="#EDF2FC"/></svg>