<svg width="37" height="48" fill="none" xmlns="http://www.w3.org/2000/svg"><path d="M26.85 27.214l-2.097-2.963c2.26-1.806 3.71-4.568 3.71-7.657V10.78c0-.023-.007-2.35-.038-2.684-.24-2.636-1.727-4.942-4.078-6.329a9.043 9.043 0 00-8.086-.542 8.901 8.901 0 01-6.906 0L6.728.114a1.437 1.437 0 00-1.344.118c-.4.26-.64.702-.64 1.174v3.75c0 2.693 1.54 5.035 3.795 6.216v5.222c0 3.09 1.448 5.85 3.709 7.657l-2.097 2.963C4.488 27.601 0 32.276 0 37.969v8.624C0 47.37.637 48 1.423 48h34.154c.786 0 1.424-.63 1.424-1.407v-8.625c0-5.692-4.488-10.367-10.15-10.754zM10.354 9.104C8.74 8.5 7.59 6.958 7.59 5.155V3.54l.644.273a11.792 11.792 0 009.149 0 6.158 6.158 0 015.506.372c1.556.917 2.54 2.43 2.7 4.154.007.11.012.47.016.887A6.931 6.931 0 0122.71 7.86l-1.226-.982a1.436 1.436 0 00-1.793 0l-1.226.982a6.946 6.946 0 01-4.329 1.516H11.86c-.466 0-.914-.075-1.334-.212a1.407 1.407 0 00-.171-.06zm1.031 7.49V12.17c.157.01.315.018.475.018h2.276a9.822 9.822 0 006.122-2.145l.33-.264.33.264a9.809 9.809 0 004.698 2.038v4.513c0 3.877-3.192 7.031-7.116 7.031-3.923 0-7.115-3.154-7.115-7.031zM18.5 31.279l-2.846-4.062v-1.19c.903.267 1.858.41 2.846.41.99 0 1.945-.143 2.847-.41v1.19L18.5 31.279zm1.424 3.877v2.813h-2.846v-2.813h2.846zm-5.693 4.175l-1.17 5.856H2.848V37.97c0-3.914 2.87-7.176 6.64-7.842v3.623c0 .776.638 1.406 1.424 1.406h3.32v4.175zm-1.897-6.987v-3.307l.588-.83c.037.087.084.17.14.25l2.722 3.887h-3.45zm3.629 12.843l.88-4.406h3.315l.88 4.406h-5.075zm5.254-12.843l2.723-3.887c.055-.08.102-.163.14-.25l.587.83v3.307h-3.45zm12.937 12.843H23.94l-1.17-5.856v-4.175h3.321c.786 0 1.423-.63 1.423-1.406v-3.623c3.77.666 6.641 3.928 6.641 7.842v7.218z" fill="#EDF2FC"/><path d="M29.885 37.5H27.04c-.786 0-1.423.63-1.423 1.406 0 .777.637 1.406 1.423 1.406h2.846c.786 0 1.423-.63 1.423-1.406 0-.776-.637-1.406-1.423-1.406z" fill="#EDF2FC"/></svg>