<svg width="38" height="39" fill="none" xmlns="http://www.w3.org/2000/svg"><path d="M38 8.584c-.326.725-.837 1.16-1.66 1.137-.631-.023-1.261-.008-1.892-.008h-.341c-.297.847-.897 1.175-1.728 1.145-.986-.031-1.98.068-2.966-.054-2.144-.26-3.605-1.457-4.413-3.502-.03-.069-.052-.145-.081-.214a.335.335 0 00-.06-.045h-1.038c-4.138 0-8.284-.023-12.422.015-4.235.038-7.883 3.502-8.35 7.828-.06.55-.06 1.091-.06 1.64 0 4.716.008 9.439-.007 14.154 0 .962.022 1.916.482 2.778.897 1.686 2.284 2.586 4.168 2.502 1.831-.084 3.159-1.06 3.87-2.785.72-1.732.386-3.35-.8-4.868-.193.382-.37.725-.541 1.061-.483.946-.95 1.892-1.44 2.83-.355.672-1.052.955-1.735.733-.69-.221-1.09-.854-1.038-1.61.022-.26.126-.488.237-.717.564-1.13 1.135-2.25 1.706-3.372.052-.1.097-.199.163-.344-.252-.023-.467-.046-.682-.06-.86-.054-1.453-.703-1.431-1.565a1.49 1.49 0 011.535-1.473 6.57 6.57 0 011.758.237c.155.046.266.069.37-.114a11.492 11.492 0 012.121-2.671c-.497-.58-.986-1.145-1.476-1.717-.719-.839-1.46-1.655-2.165-2.51-.705-.862-.356-2.106.66-2.442.126-.038.267-.068.4-.068 1.595-.008 3.19-.016 4.784 0 .645.007 1.09.374 1.313.992.215.602.081 1.152-.356 1.61-.304.312-.69.434-1.113.434h-1.275c.608.695 1.164 1.343 1.728 1.992a12.82 12.82 0 013.774-1.091c1.217-.168 2.44-.145 3.664-.145h2.002c.134 0 .26.015.364-.13.482-.702.979-1.396 1.505-2.152h-2.306c-.26 0-.52.016-.779-.015a1.505 1.505 0 01-1.342-1.587c.052-.824.652-1.434 1.483-1.442 1.928-.008 3.856 0 5.784-.008.609 0 1.083.26 1.365.817.29.572.223 1.13-.14 1.648-1.061 1.51-2.122 3.03-3.197 4.532-.156.214-.163.382-.067.618.452 1.099.883 2.198 1.32 3.32a7.425 7.425 0 013.567.22c3.026.939 5.206 3.953 5.199 7.203 0 .908-.623 1.58-1.454 1.587-.845.008-1.475-.64-1.505-1.54-.067-2.244-1.446-3.976-3.56-4.457a3.083 3.083 0 00-1.075-.076c.222.572.437 1.121.652 1.663.297.748.601 1.496.89 2.251.327.847-.007 1.701-.77 2.037-.78.336-1.625-.03-1.974-.893-.519-1.289-1.023-2.578-1.55-3.914-.712.649-1.179 1.42-1.372 2.35-.393 1.893.141 3.495 1.632 4.67 1.513 1.198 3.174 1.267 4.865.359.786-.42 1.528-.344 2.017.259.6.74.408 1.816-.423 2.32a7.206 7.206 0 01-8.157-.428c-1.602-1.236-2.61-2.869-2.907-4.913-.438-3.03.6-5.464 2.914-7.34.193-.16.26-.26.149-.52a116.45 116.45 0 01-1.261-3.166c-.074-.183-.156-.252-.349-.252-1.602.03-3.211-.084-4.813.122-2.685.344-4.835 1.572-6.252 4.037.356.358.72.694 1.031 1.09 3.582 4.564 1.053 11.385-4.576 12.323-3.923.657-7.69-2.068-8.439-6.096-.03-.153.007-.328-.134-.45V14.642c.12-.038.075-.145.09-.221.148-1.015.378-2 .741-2.953 1.676-4.395 5.955-7.455 10.546-7.5 2.818-.03 5.636-.008 8.447-.008h4.998c.03-.069.067-.13.082-.19.66-1.962 1.965-3.167 3.923-3.656.081-.022.207.016.252-.114h3.856c.49.183.92.443 1.083.977.074.229.178.251.37.251.594-.007 1.18 0 1.773-.007 1.053 0 1.424.244 1.817 1.22v.687c-.37.916-1.06 1.213-1.98 1.145-.608-.046-1.223-.008-1.846-.008V6.63h2.01c1.06 0 1.438.26 1.816 1.229.023.267.023.496.023.725zm-6.837-.77V3.09c-.453 0-.883-.007-1.313 0-1.172.03-2.128.992-2.217 2.228-.082 1.145.741 2.22 1.861 2.434.549.107 1.09.03 1.669.061z" fill="#EDF2FC"/></svg>