<svg width="46" height="46" fill="none" xmlns="http://www.w3.org/2000/svg"><path d="M45.358 5.59c-.095-.059-2.362-1.438-6.256-2.817C35.53 1.508 29.839 0 23 0 16.162 0 10.47 1.508 6.9 2.773 3.005 4.152.738 5.53.643 5.589L0 5.984v14.144a26.032 26.032 0 006.526 17.245 26.03 26.03 0 0016.308 8.606L23 46l.167-.02a26.034 26.034 0 0016.308-8.606A26.032 26.032 0 0046 20.128V5.984l-.643-.395zm-2.053 14.538a23.34 23.34 0 01-5.85 15.461A23.34 23.34 0 0123 43.283 23.339 23.339 0 018.546 35.59a23.339 23.339 0 01-5.85-15.461V7.527c.895-.478 2.69-1.364 5.183-2.242 3.356-1.182 8.703-2.59 15.121-2.59 6.419 0 11.766 1.408 15.122 2.59 2.493.878 4.289 1.764 5.183 2.242v12.601z" fill="#EDF2FC"/><path d="M6.205 8.839l-.814.35v10.939c0 5.041 1.838 9.898 5.175 13.677a20.708 20.708 0 0012.221 6.724l.213.034.213-.034a20.709 20.709 0 0012.221-6.724 20.646 20.646 0 005.175-13.677V9.19l-.813-.351C36.81 7.55 30.66 5.39 23 5.39c-7.659 0-13.81 2.16-16.795 3.449zm6.382 23.182a17.99 17.99 0 01-1.805-2.43v-3.093a4.767 4.767 0 014.761-4.761c1.325 0 2.559.54 3.449 1.477a4.732 4.732 0 00-.753 2.565 4.74 4.74 0 001.094 3.035 7.465 7.465 0 00-3.764 5.9 17.932 17.932 0 01-2.982-2.693zm.89-15.046c0-1.14.927-2.066 2.066-2.066 1.14 0 2.067.927 2.067 2.066 0 1.14-.927 2.066-2.067 2.066a2.069 2.069 0 01-2.066-2.066zm11.59 8.804c0 1.14-.927 2.067-2.067 2.067a2.069 2.069 0 01-2.066-2.067c0-1.139.927-2.066 2.066-2.066 1.14 0 2.067.927 2.067 2.066zM23 37.832a17.95 17.95 0 01-4.761-1.53v-1A4.767 4.767 0 0123 30.543a4.767 4.767 0 014.762 4.76v1A17.954 17.954 0 0123 37.832zm10.414-5.811a17.916 17.916 0 01-2.982 2.693 7.465 7.465 0 00-3.765-5.9 4.74 4.74 0 001.095-3.035 4.73 4.73 0 00-.753-2.565 4.737 4.737 0 013.448-1.477 4.767 4.767 0 014.762 4.761v3.093a17.99 17.99 0 01-1.805 2.43zm-5.023-15.046c0-1.14.927-2.066 2.066-2.066 1.14 0 2.067.927 2.067 2.066 0 1.14-.927 2.066-2.067 2.066a2.069 2.069 0 01-2.066-2.066zm9.523 3.153c0 1.318-.145 2.62-.426 3.888a7.495 7.495 0 00-3.364-4.007 4.74 4.74 0 001.095-3.034 4.767 4.767 0 00-4.762-4.762 4.767 4.767 0 00-4.761 4.762c0 1.15.409 2.205 1.09 3.028a7.414 7.414 0 00-1.815 1.443 4.731 4.731 0 00-3.941 0 7.414 7.414 0 00-1.815-1.443 4.74 4.74 0 001.09-3.028 4.767 4.767 0 00-4.762-4.762 4.767 4.767 0 00-4.761 4.762 4.74 4.74 0 001.094 3.034 7.495 7.495 0 00-3.363 4.007 17.972 17.972 0 01-.427-3.888v-9.153c3.015-1.21 8.377-2.89 14.914-2.89 6.538 0 11.9 1.68 14.914 2.89v9.153z" fill="#EDF2FC"/></svg>