<svg width="31" height="41" fill="none" xmlns="http://www.w3.org/2000/svg"><path d="M19.436 11.803h-2.36V9.477c0-.857-.706-1.552-1.576-1.552-.87 0-1.575.695-1.575 1.552v2.326h-2.361c-.87 0-1.576.696-1.576 1.553s.706 1.552 1.576 1.552h2.36v2.326c0 .857.706 1.553 1.576 1.553.87 0 1.576-.695 1.576-1.553v-2.326h2.36c.87 0 1.576-.695 1.576-1.552 0-.857-.706-1.553-1.576-1.553z" fill="#EDF2FC"/><path d="M31 1.552C31 .695 30.293 0 29.423 0H1.576C.706 0 .001.695.001 1.552v33.295c0 .858.705 1.553 1.575 1.553h4.556v3.046c0 1.38 1.7 2.073 2.69 1.098l2.742-2.701 2.742 2.7c.984.97 2.69.294 2.69-1.097V36.4h12.429c.87 0 1.575-.695 1.575-1.553V1.552zM3.151 3.105h24.696v20.502H3.152V3.105zm10.692 32.593L12.68 34.55a1.592 1.592 0 00-2.228 0l-1.168 1.149v-4.143h4.561v4.142zm14.005-2.403H16.995v-1.739h7.72c.87 0 1.576-.695 1.576-1.552 0-.858-.705-1.553-1.575-1.553H6.286c-.87 0-1.576.695-1.576 1.553a1.56 1.56 0 001.422 1.544v1.747h-2.98v-6.583h24.697v6.583z" fill="#EDF2FC"/></svg>