<svg width="37" height="34" fill="none" xmlns="http://www.w3.org/2000/svg"><path d="M2.891 21.009v-12.1C2.891 3.995 6.781 0 11.563 0h13.875c4.782 0 8.672 3.996 8.672 8.908v12.1c0 .82-.647 1.485-1.445 1.485-.799 0-1.446-.664-1.446-1.484v-12.1c0-3.275-2.593-5.94-5.781-5.94H11.563c-3.188 0-5.781 2.665-5.781 5.94v12.1c0 .82-.647 1.484-1.446 1.484-.798 0-1.445-.664-1.445-1.484zm34.11 8.537C37 32.002 35.055 34 32.665 34H4.336C1.946 34 0 32.002 0 29.546c0-2.456 1.946-4.454 4.336-4.454h28.329c2.39 0 4.336 1.998 4.336 4.454zm-2.891 0c0-.819-.648-1.485-1.445-1.485H4.336c-.797 0-1.445.666-1.445 1.485 0 .819.648 1.485 1.445 1.485h28.329c.797 0 1.445-.666 1.445-1.485zM12.407 12.62c-.89 0-1.726-.358-2.355-1.008l-.958-.987a1.513 1.513 0 01.003-2.1 1.418 1.418 0 012.044.003l.96.99a.417.417 0 00.61.001l2.014-2.098a1.418 1.418 0 012.044-.016c.568.576.575 1.516.015 2.1l-2.018 2.103a3.257 3.257 0 01-2.359 1.012zm15.922-2.594c0-.82-.648-1.484-1.446-1.484h-6.07c-.798 0-1.445.664-1.445 1.484s.647 1.485 1.445 1.485h6.07c.799 0 1.446-.665 1.446-1.485zm-13.563 9.006l2.018-2.103a1.513 1.513 0 00-.015-2.1 1.418 1.418 0 00-2.044.015l-2.014 2.1a.415.415 0 01-.61-.003l-.96-.99a1.418 1.418 0 00-2.044-.003 1.513 1.513 0 00-.003 2.1l.958.988a3.254 3.254 0 004.714-.005zM28.33 17.45c0-.82-.648-1.485-1.446-1.485h-6.07c-.798 0-1.445.665-1.445 1.485 0 .82.647 1.485 1.445 1.485h6.07c.799 0 1.446-.665 1.446-1.485z" fill="#EDF2FC"/></svg>