<svg width="51" height="45" fill="none" xmlns="http://www.w3.org/2000/svg"><path d="M49.506 9.004H43.45c-8.975-12.008-26.928-12.002-35.899 0H1.495c-.826 0-1.495.671-1.495 1.5v23.993c0 .828.67 1.5 1.495 1.5H7.55c8.978 12.01 26.931 12 35.9 0h6.056c.825 0 1.495-.672 1.495-1.5V10.503c0-.828-.67-1.5-1.495-1.5zM39.08 32.997H17.155l4.232-4.248c4.915 3.273 11.61-.25 11.61-6.262 0-1.53-.46-2.953-1.245-4.14l6.32-6.344h1.008c.66 4.615 4.324 8.27 8.932 8.9v3.194c-4.608.63-8.271 4.285-8.932 8.9zm-27.134 0c-.662-4.624-4.337-8.283-8.957-8.904v-3.186c4.62-.62 8.295-4.28 8.957-8.904h21.9l-4.207 4.223c-4.915-3.273-11.61.25-11.61 6.261 0 1.53.46 2.953 1.245 4.141l-6.346 6.37h-.982zm11.626-6.441l5.995-6.017c1.829 3.818-2.186 7.854-5.995 6.017zm3.882-8.137l-5.995 6.016c-1.828-3.817 2.186-7.854 5.995-6.016zm20.558-.555a7.505 7.505 0 01-5.9-5.861h5.9v5.86zM38.146 7.687l-1.311 1.317h-25.37C18.59 1.547 30.279.929 38.145 7.687zM8.915 12.003a7.504 7.504 0 01-5.926 5.865v-5.865h5.926zM2.989 27.132a7.504 7.504 0 015.926 5.865H2.989v-5.865zm9.866 10.18l1.311-1.316h25.371c-7.115 7.443-18.8 8.087-26.682 1.317zm29.257-4.315a7.505 7.505 0 015.9-5.86v5.86h-5.9z" fill="#EDF2FC"/><path d="M13.547 21H10.56c-.825 0-1.494.672-1.494 1.5S9.735 24 10.56 24h2.988c.825 0 1.494-.672 1.494-1.5s-.668-1.5-1.494-1.5zm26.895 0h-2.988c-.826 0-1.495.672-1.495 1.5s.67 1.5 1.495 1.5h2.988c.825 0 1.494-.672 1.494-1.5s-.669-1.5-1.494-1.5z" fill="#EDF2FC"/></svg>