<svg width="40" height="40" fill="none" xmlns="http://www.w3.org/2000/svg"><path d="M30.7 15.594a8.796 8.796 0 003.195-6.784c0-4.858-3.953-8.81-8.81-8.81-4.859 0-8.81 3.952-8.81 8.81 0 .635.067 1.255.196 1.852a8.829 8.829 0 00-1.545-.136c-4.858 0-8.81 3.953-8.81 8.81a8.796 8.796 0 003.193 6.783C3.855 28.343 0 33.703 0 39.947h3.126c0-6.507 5.293-11.8 11.8-11.8 4.858 0 8.81-3.952 8.81-8.81a8.83 8.83 0 00-.196-1.852 8.837 8.837 0 001.544.136c3.835 0 7.246 1.84 9.403 4.68l2.118-2.358a15 15 0 00-5.904-4.35zM14.927 25.02a5.691 5.691 0 01-5.685-5.684 5.691 5.691 0 015.685-5.685 5.691 5.691 0 015.684 5.685 5.691 5.691 0 01-5.684 5.684zm10.158-10.526A5.691 5.691 0 0119.4 8.81a5.691 5.691 0 015.684-5.684A5.691 5.691 0 0130.77 8.81a5.691 5.691 0 01-5.684 5.685z" fill="#EDF2FC"/><path d="M37.675 23.43L26.819 35.517l-6.127-5.832-2.155 2.265L26.994 40l13.007-14.481-2.326-2.089z" fill="#EDF2FC"/></svg>