<svg width="47" height="46" fill="none" xmlns="http://www.w3.org/2000/svg"><path d="M14.262 13.392c.57.517 1.438.517 2.008 0l4.447-4.034a1.494 1.494 0 10-2.008-2.213L16.76 8.913V1.494a1.494 1.494 0 00-2.988 0v7.419l-1.95-1.768a1.494 1.494 0 10-2.007 2.213l4.447 4.034zm16.469 0c.57.517 1.438.517 2.008 0l4.447-4.034a1.494 1.494 0 10-2.008-2.213L33.23 8.913V1.494a1.494 1.494 0 00-2.988 0v7.419l-1.95-1.768a1.494 1.494 0 10-2.007 2.213l4.447 4.034z" fill="#EDF2FC"/><path d="M46.49 10.92a1.494 1.494 0 00-2.109.142l-6.617 7.568H9.237L2.62 11.062a1.494 1.494 0 10-2.25 1.966l6.694 7.657v21.829A3.49 3.49 0 0010.55 46h25.901a3.49 3.49 0 003.486-3.486v-21.83l6.694-7.656a1.494 1.494 0 00-.141-2.108zm-9.54 31.594a.499.499 0 01-.499.498h-25.9a.499.499 0 01-.499-.498V21.618H36.95v20.896z" fill="#EDF2FC"/><path d="M24.987 33.353h6.674a1.494 1.494 0 000-2.988h-6.674a1.494 1.494 0 000 2.988zm0 6.475h6.674a1.494 1.494 0 000-2.988h-6.674a1.494 1.494 0 000 2.988z" fill="#EDF2FC"/></svg>