<svg width="38" height="38" fill="none" xmlns="http://www.w3.org/2000/svg"><path d="M28.649 17.07a1.484 1.484 0 100-2.969 1.484 1.484 0 000 2.97z" fill="#EDF2FC"/><path d="M32.063 2.969h-1.93V1.484a1.484 1.484 0 00-2.968 0V2.97H20.41V1.484a1.484 1.484 0 10-2.97 0V2.97h-6.679V1.484a1.484 1.484 0 10-2.969 0V2.97H5.938A5.944 5.944 0 000 8.906v23.157A5.944 5.944 0 005.938 38h11.356a1.484 1.484 0 000-2.969H5.938a2.972 2.972 0 01-2.969-2.968V8.905a2.972 2.972 0 012.969-2.969h1.855v1.485a1.484 1.484 0 102.97 0V5.938h6.679v1.484a1.484 1.484 0 102.969 0V5.938h6.754v1.484a1.484 1.484 0 102.968 0V5.938h1.93a2.972 2.972 0 012.969 2.968v8.461a1.484 1.484 0 002.969 0v-8.46a5.944 5.944 0 00-5.938-5.938z" fill="#EDF2FC"/><path d="M29.02 20.04c-4.952 0-8.98 4.028-8.98 8.98 0 4.951 4.028 8.98 8.98 8.98 4.952 0 8.98-4.029 8.98-8.98 0-4.952-4.028-8.98-8.98-8.98zm0 14.991a6.019 6.019 0 01-6.012-6.011 6.019 6.019 0 016.012-6.012 6.018 6.018 0 016.012 6.012 6.018 6.018 0 01-6.012 6.011z" fill="#EDF2FC"/><path d="M31.172 27.535h-.668v-1.558a1.484 1.484 0 10-2.968 0v3.043c0 .82.664 1.484 1.484 1.484h2.152a1.484 1.484 0 100-2.969zm-8.98-10.465a1.484 1.484 0 100-2.969 1.484 1.484 0 000 2.97zm-6.457 6.457a1.484 1.484 0 100-2.968 1.484 1.484 0 000 2.968zM9.278 17.07a1.484 1.484 0 100-2.969 1.484 1.484 0 000 2.97zm0 6.457a1.484 1.484 0 100-2.968 1.484 1.484 0 000 2.968zm0 6.457a1.484 1.484 0 100-2.968 1.484 1.484 0 000 2.968zm6.457 0a1.484 1.484 0 100-2.968 1.484 1.484 0 000 2.968zm0-12.914a1.484 1.484 0 100-2.968 1.484 1.484 0 000 2.968z" fill="#EDF2FC"/></svg>