<svg width="12" height="10" viewBox="0 0 12 10"
	xmlns="http://www.w3.org/2000/svg">
	<path d="M0.339183 5.75L4.51938 9.68966C4.94964 10.1034 5.63985 10.1034 6.07011 9.68966C6.50037 9.27586 6.50037 8.61207 6.07011 8.19828L3.76334 6.06034L10.8979 6.06034C11.5075 6.06034 12.0005 5.58621 12.0005 5C12.0005 4.41379 11.5075 3.93965 10.8979 3.93965L3.77231 3.93965L6.07908 1.80172C6.50934 1.38793 6.50934 0.724138 6.07908 0.310345C5.64882 -0.103448 4.95861 -0.103448 4.52834 0.310345L0.348145 4.25C0.133016 4.4569 0.0254517 4.72414 0.0254517 5C0.0254517 5.27586 0.124052 5.5431 0.339183 5.75Z" />
</svg>
