<svg width="12" height="10" viewBox="0 0 12 10"
	xmlns="http://www.w3.org/2000/svg">
	<path d="M11.6618 4.25L7.4816 0.310345C7.05133 -0.103449 6.36113 -0.103449 5.93087 0.310345C5.5006 0.724138 5.5006 1.38793 5.93087 1.80172L8.23764 3.93966H1.10303C0.493495 3.93966 0.000488281 4.41379 0.000488281 5C0.000488281 5.58621 0.493495 6.06035 1.10303 6.06035H8.22867L5.9219 8.19828C5.49164 8.61207 5.49164 9.27586 5.9219 9.68966C6.35216 10.1034 7.04237 10.1034 7.47263 9.68966L11.6528 5.75C11.868 5.5431 11.9755 5.27586 11.9755 5C11.9755 4.72414 11.8769 4.4569 11.6618 4.25Z" />
</svg>
