<svg width="40" height="40" viewBox="0 0 40 40"
	xmlns="http://www.w3.org/2000/svg">
	<circle cx="20.0005" cy="20" r="20" />
	<path d="M19.9392 18.5938C19.9392 18.1623 19.5864 17.8125 19.1512 17.8125H14.9358C14.5006 17.8125 14.1478 18.1623 14.1478 18.5938C14.1478 19.0252 14.5006 19.375 14.9358 19.375H19.1512C19.5864 19.375 19.9392 19.0252 19.9392 18.5938Z" fill="white"/>
	<path d="M14.9358 20.9375C14.5006 20.9375 14.1478 21.2873 14.1478 21.7188C14.1478 22.1502 14.5006 22.5 14.9358 22.5H16.6298C17.065 22.5 17.4178 22.1502 17.4178 21.7188C17.4178 21.2873 17.065 20.9375 16.6298 20.9375H14.9358Z" fill="white"/>
	<path d="M18.4421 28.4375H14.1522C13.2833 28.4375 12.5764 27.7366 12.5764 26.875V13.125C12.5764 12.2634 13.2833 11.5625 14.1522 11.5625H23.8395C24.7085 11.5625 25.4154 12.2634 25.4154 13.125V17.5C25.4154 17.9315 25.7682 18.2812 26.2033 18.2812C26.6385 18.2812 26.9913 17.9315 26.9913 17.5V13.125C26.9913 11.4019 25.5774 10 23.8395 10H14.1522C12.4144 10 11.0005 11.4019 11.0005 13.125V26.875C11.0005 28.5981 12.4144 30 14.1522 30H18.4421C18.8773 30 19.23 29.6502 19.23 29.2188C19.23 28.7873 18.8773 28.4375 18.4421 28.4375Z" fill="white"/>
	<path d="M28.534 21.3127L24.6665 19.5992C24.5384 19.5424 24.4032 19.5223 24.2729 19.5344C24.1426 19.5224 24.0073 19.5425 23.8792 19.5992L20.0118 21.3127C19.728 21.4384 19.5453 21.7177 19.5453 22.0259V25.001C19.5453 26.2229 20.0321 27.47 20.8811 28.4227C21.7875 29.4398 22.9731 30 24.2197 30H24.326C25.5726 30 26.7583 29.4398 27.6647 28.4227C28.5136 27.47 29.0005 26.2229 29.0005 25.001V22.0259C29.0005 21.7178 28.8178 21.4384 28.534 21.3127ZM27.4246 22.5325V25.001C27.4246 26.6232 26.0995 28.4375 24.326 28.4375H24.2197C22.4463 28.4375 21.1211 26.6232 21.1211 25.001V22.5325L24.2729 21.1362L27.4246 22.5325H27.4246Z" fill="white"/>
	<path d="M23.8395 15.4688C23.8395 15.0373 23.4867 14.6875 23.0515 14.6875H14.9358C14.5006 14.6875 14.1478 15.0373 14.1478 15.4688C14.1478 15.9002 14.5006 16.25 14.9358 16.25H23.0515C23.4867 16.25 23.8395 15.9002 23.8395 15.4688Z" fill="white"/>
</svg>
