<svg width="40" height="40" viewBox="0 0 40 40" fill="none" xmlns="http://www.w3.org/2000/svg">
<circle cx="20.0005" cy="20" r="20" fill="#FFD600"/>
<path d="M28.3956 23.1277C27.1712 23.1277 25.9689 22.9362 24.8296 22.5597C24.2713 22.3693 23.585 22.544 23.2443 22.8939L20.9955 24.5915C18.3875 23.1994 16.781 21.5934 15.4079 19.0051L17.0556 16.8148C17.4836 16.3873 17.6372 15.7629 17.4532 15.1769C17.0751 14.0316 16.883 12.8299 16.883 11.6049C16.8831 10.7199 16.1631 10 15.2782 10H11.6053C10.7204 10 10.0005 10.7199 10.0005 11.6048C10.0005 21.7481 18.2524 30 28.3956 30C29.2805 30 30.0005 29.2801 30.0005 28.3952V24.7325C30.0004 23.8477 29.2805 23.1277 28.3956 23.1277Z" fill="white"/>
</svg>
