<svg width="40" height="40" viewBox="0 0 40 40" fill="none" xmlns="http://www.w3.org/2000/svg">
<circle cx="20.0005" cy="20" r="20" fill="#0088CC"/>
<path d="M26.7226 13.4382C26.5026 13.1556 26.1733 13 25.7952 13C25.5895 13 25.3718 13.0456 25.148 13.1353L9.91128 19.2461C9.10269 19.5703 8.99379 20.0568 9.00079 20.3181C9.00779 20.5792 9.14279 21.0585 9.96758 21.3341C9.97253 21.3359 9.97747 21.3373 9.98241 21.3389L12.1192 21.9812L22.526 16.3954C22.7853 16.256 23.103 16.3642 23.2356 16.6367C23.3397 16.8509 23.2979 17.1025 23.1496 17.2681L23.15 17.2686L17.3638 23.7279L17.1987 24.4307L22.1283 28.6012C22.1308 28.6032 22.1332 28.6054 22.1358 28.6074C22.4509 28.8642 22.795 28.9998 23.1311 29C23.7878 29 24.3106 28.4894 24.4629 27.6993L26.9594 14.7479C27.0595 14.2282 26.9754 13.7629 26.7226 13.4382Z" fill="white"/>
<path d="M16.3733 23.3213C16.3943 23.2317 16.4366 23.1463 16.501 23.0743L20.2977 18.8357L13.2523 22.6174L14.8521 27.4242C14.9433 27.698 15.079 27.9312 15.2468 28.1137L16.373 23.3212L16.3733 23.3213Z" fill="white"/>
<path d="M16.2287 28.5586C16.6089 28.5553 16.9826 28.3868 17.31 28.0701L18.4804 26.9378L16.9198 25.6176L16.2287 28.5586Z" fill="white"/>
</svg>
