<svg width="40" height="40" viewBox="0 0 40 40" fill="none" xmlns="http://www.w3.org/2000/svg">
<circle cx="20.0005" cy="20" r="20" fill="#43D854"/>
<path d="M25.0486 22.1149L25.0403 22.1836C23.0246 21.179 22.8137 21.0451 22.5534 21.4356C22.3728 21.7061 21.8467 22.3193 21.6881 22.5008C21.5277 22.6795 21.3682 22.6933 21.0959 22.5695C20.8209 22.432 19.9382 22.1433 18.8932 21.2083C18.0792 20.4796 17.5328 19.5858 17.3715 19.3108C17.1029 18.847 17.6648 18.781 18.1763 17.813C18.268 17.6205 18.2212 17.4693 18.1534 17.3327C18.0847 17.1952 17.5374 15.8477 17.3082 15.3106C17.0882 14.7753 16.8618 14.8431 16.6922 14.8431C16.1642 14.7973 15.7783 14.8046 15.4382 15.1584C13.9587 16.7846 14.3318 18.462 15.5977 20.2458C18.0856 23.5018 19.4111 24.1013 21.8347 24.9336C22.4892 25.1417 23.086 25.1123 23.5581 25.0445C24.0842 24.9611 25.1778 24.3836 25.4061 23.7373C25.6398 23.0911 25.6398 22.5549 25.5711 22.4311C25.5032 22.3074 25.3236 22.2386 25.0486 22.1149Z" fill="white"/>
<path d="M27.8105 12.1619C20.7622 5.34843 9.09765 10.2901 9.09307 19.9021C9.09307 21.8234 9.59632 23.697 10.5552 25.3516L9.00049 31L14.8076 29.4857C22.0538 33.3998 30.9968 28.2024 31.0005 19.9076C31.0005 16.9963 29.8638 14.2564 27.7967 12.1976L27.8105 12.1619ZM29.169 19.8773C29.1635 26.8741 21.4827 31.2438 15.408 27.6725L15.078 27.4764L11.6405 28.3701L12.5617 25.0289L12.3427 24.6852C8.56232 18.6674 12.9055 10.8025 20.0665 10.8025C22.4993 10.8025 24.7827 11.7512 26.5024 13.47C28.2212 15.174 29.169 17.4574 29.169 19.8773Z" fill="white"/>
</svg>
