<svg width="17" height="17" viewBox="0 0 17 17" fill="none" xmlns="http://www.w3.org/2000/svg">
<path d="M8.5005 0C3.81361 0 0.000511127 3.61235 0.000511127 8.05263C0.000511127 9.6047 0.466877 11.1082 1.35144 12.4082C1.18399 14.3578 0.735193 15.8052 0.0835277 16.4909C-0.00260553 16.5816 -0.0241388 16.7202 0.0302611 16.8348C0.0784277 16.9371 0.177594 17 0.283844 17C0.296877 17 0.309911 16.9991 0.323227 16.997C0.437977 16.98 3.10357 16.5762 5.03165 15.4047C6.12645 15.8696 7.29265 16.1053 8.5005 16.1053C13.1874 16.1053 17.0005 12.4929 17.0005 8.05263C17.0005 3.61235 13.1874 0 8.5005 0ZM4.53384 9.24561C3.90881 9.24561 3.40051 8.71056 3.40051 8.05263C3.40051 7.3947 3.90881 6.85965 4.53384 6.85965C5.15887 6.85965 5.66717 7.3947 5.66717 8.05263C5.66717 8.71056 5.15887 9.24561 4.53384 9.24561ZM8.5005 9.24561C7.87547 9.24561 7.36717 8.71056 7.36717 8.05263C7.36717 7.3947 7.87547 6.85965 8.5005 6.85965C9.12553 6.85965 9.63383 7.3947 9.63383 8.05263C9.63383 8.71056 9.12553 9.24561 8.5005 9.24561ZM12.4672 9.24561C11.8421 9.24561 11.3338 8.71056 11.3338 8.05263C11.3338 7.3947 11.8421 6.85965 12.4672 6.85965C13.0922 6.85965 13.6005 7.3947 13.6005 8.05263C13.6005 8.71056 13.0922 9.24561 12.4672 9.24561Z" fill="#9DB4FD"/>
</svg>
