<svg width="12" height="12" viewBox="0 0 12 12" fill="none" xmlns="http://www.w3.org/2000/svg">
<path d="M0.217788 10.7309C-0.0725253 10.4406 -0.0725253 9.96993 0.217788 9.67962L9.67963 0.217736C9.96995 -0.0725785 10.4406 -0.0725785 10.7309 0.217736L11.7823 1.26906C12.0726 1.55937 12.0726 2.03006 11.7823 2.32038L2.32042 11.7823C2.03011 12.0726 1.55942 12.0726 1.2691 11.7823L0.217788 10.7309Z" fill="#365EDC"/>
<path d="M1.26905 0.217741C1.55936 -0.072573 2.03005 -0.072573 2.32037 0.217741L11.7822 9.67962C12.0725 9.96994 12.0725 10.4406 11.7822 10.7309L10.7309 11.7823C10.4406 12.0726 9.96989 12.0726 9.67958 11.7823L0.217735 2.32038C-0.0725782 2.03007 -0.0725783 1.55938 0.217735 1.26906L1.26905 0.217741Z" fill="#365EDC"/>
</svg>
