<svg width="30" height="30" viewBox="0 0 30 30" fill="none" xmlns="http://www.w3.org/2000/svg">
<path d="M0 15C0 6.71573 6.71573 0 15 0C23.2843 0 30 6.71573 30 15C30 23.2843 23.2843 30 15 30C6.71573 30 0 23.2843 0 15Z" fill="#365EDC"/>
<path d="M15 7C10.5786 7 7 10.578 7 15C7 16.4032 7.36597 17.7737 8.06091 18.9824L7.03015 22.1833C6.95825 22.4065 7.01733 22.6511 7.18311 22.8169C7.34729 22.9811 7.59131 23.0424 7.81665 22.9698L11.0176 21.9391C12.2263 22.634 13.5968 23 15 23C19.4214 23 23 19.422 23 15C23 10.5786 19.422 7 15 7ZM15 21.75C13.7325 21.75 12.4971 21.3964 11.4271 20.7273C11.2732 20.6311 11.082 20.6051 10.9042 20.6624L8.59351 21.4065L9.33765 19.0958C9.39404 18.9205 9.37024 18.7291 9.27258 18.5729C8.60364 17.5029 8.25 16.2675 8.25 15C8.25 11.2781 11.2781 8.25 15 8.25C18.7219 8.25 21.75 11.2781 21.75 15C21.75 18.7219 18.7219 21.75 15 21.75Z" fill="white"/>
<path d="M15 10.6C13.6767 10.6 12.6 11.7018 12.6 13.0564C12.6 13.4258 12.8927 13.7253 13.2536 13.7253C13.6145 13.7253 13.9072 13.4258 13.9072 13.0564C13.9072 12.4397 14.3974 11.9378 15 11.9378C15.6026 11.9378 16.0928 12.4397 16.0928 13.0564C16.0928 13.6732 15.6026 14.1748 15 14.1748C14.6391 14.1748 14.3464 14.4743 14.3464 14.8437V16.3536C14.3464 16.723 14.6391 17.0225 15 17.0225C15.3609 17.0225 15.6536 16.723 15.6536 16.3536V15.4199C16.6603 15.1281 17.4 14.179 17.4 13.0564C17.4 11.7018 16.3234 10.6 15 10.6Z" fill="white"/>
<path d="M15 17.5287C14.4951 17.5287 14.0857 17.9477 14.0857 18.4646C14.0857 18.9811 14.4951 19.4 15 19.4C15.5049 19.4 15.9143 18.981 15.9143 18.4646C15.9143 17.9477 15.5049 17.5287 15 17.5287Z" fill="white"/>
</svg>
