<svg width="16" height="16" viewBox="0 0 16 16" fill="none" xmlns="http://www.w3.org/2000/svg">
<path d="M8.00082 0C3.58383 0 0.000488281 3.57868 0.000488281 7.99579C0.000488281 12.4171 3.58383 16 8.00078 16C12.4202 16 16.0005 12.4171 16.0005 7.99579C16.0005 3.57868 12.4202 0 8.00082 0ZM8.57092 12.4472C8.38511 12.6126 8.16977 12.6957 7.92583 12.6957C7.67344 12.6957 7.45328 12.614 7.26536 12.4505C7.07714 12.2873 6.98285 12.0587 6.98285 11.7651C6.98285 11.5046 7.0741 11.2853 7.25602 11.1076C7.43794 10.9299 7.6611 10.8411 7.92583 10.8411C8.18634 10.8411 8.4056 10.9299 8.5836 11.1076C8.76129 11.2853 8.85044 11.5045 8.85044 11.7651C8.8501 12.0545 8.75703 12.2819 8.57092 12.4472ZM10.8878 6.70351C10.7451 6.96823 10.5755 7.19649 10.3789 7.38896C10.1828 7.5814 9.83014 7.90484 9.32113 8.35958C9.18078 8.48789 9.06785 8.60052 8.98323 8.69748C8.8986 8.79477 8.83536 8.88357 8.79408 8.9643C8.75251 9.045 8.72061 9.12573 8.69801 9.20642C8.67541 9.28682 8.64139 9.42868 8.5953 9.63134C8.51702 10.0614 8.27096 10.2764 7.85743 10.2764C7.64239 10.2764 7.46169 10.2062 7.31442 10.0656C7.16773 9.92496 7.09456 9.71626 7.09456 9.43921C7.09456 9.09198 7.14846 8.7911 7.25599 8.53664C7.36292 8.28215 7.50597 8.059 7.68367 7.86657C7.86166 7.67413 8.10138 7.44583 8.40345 7.18111C8.66818 6.94952 8.85944 6.77487 8.97719 6.65709C9.09523 6.53905 9.19434 6.40774 9.27474 6.26318C9.35577 6.11831 9.39553 5.96141 9.39553 5.79187C9.39553 5.46091 9.27296 5.18204 9.02661 4.95466C8.78056 4.72729 8.46311 4.61344 8.07429 4.61344C7.61923 4.61344 7.28433 4.72818 7.06929 4.95766C6.85424 5.18715 6.67266 5.52504 6.52356 5.97167C6.38262 6.43909 6.11578 6.67276 5.72334 6.67276C5.49173 6.67276 5.29629 6.59114 5.13697 6.4279C4.97795 6.26466 4.89844 6.0879 4.89844 5.89757C4.89844 5.50485 5.02463 5.10671 5.27673 4.70347C5.52912 4.30022 5.89714 3.96622 6.3811 3.7018C6.86477 3.43708 7.4295 3.30455 8.07429 3.30455C8.67393 3.30455 9.20309 3.41537 9.66207 3.63674C10.1211 3.85778 10.4758 4.15866 10.7261 4.5393C10.9761 4.91965 11.1014 5.33316 11.1014 5.77979C11.1019 6.13069 11.0306 6.43879 10.8878 6.70351Z" fill="#9DB4FD"/>
</svg>
