<svg width="42" height="48" viewBox="0 0 42 48" fill="none" xmlns="http://www.w3.org/2000/svg">
<path d="M42.0005 27.5743C42.0005 24.1356 39.2192 21.3289 35.7644 21.2331V20.3102C37.1862 19.5054 39.5608 17.4486 39.5608 12.6867C39.5608 5.69145 33.8049 0.000393743 26.7301 0.000393743H21.0085C18.5224 -0.0214499 15.7195 0.866638 13.6012 2.39728C9.30388 5.11761 6.1463 3.9299 2.44012 1.95544V10.1278C2.44012 13.7848 3.78442 17.257 6.23647 19.9702V21.2331C2.78165 21.3289 0.000488281 24.1356 0.000488281 27.5743C0.000488281 31.0324 2.81293 33.8513 6.29479 33.917C6.95746 41.798 13.2993 48 21.0004 48C28.7016 48 35.0434 41.798 35.7061 33.917C39.1879 33.8514 42.0005 31.0325 42.0005 27.5743ZM5.28461 6.3011C8.61428 7.3015 12.187 6.74876 15.2511 4.68843C16.9204 3.48534 19.0129 2.80406 21.0004 2.81278H26.7301C32.2365 2.81278 36.7163 7.24216 36.7163 12.6867C36.7163 14.5345 36.2705 15.9848 35.3939 17.0025C34.3231 13.4777 30.7616 11.0385 26.8885 11.2804C23.3707 15.5056 18.046 18.0235 12.4914 18.0135H8.28223C6.34494 15.8291 5.28471 13.0512 5.28471 10.1278L5.28461 6.3011ZM2.84498 27.5743C2.84498 25.6864 4.35019 24.1396 6.23647 24.0456V31.1031C4.35019 31.0091 2.84498 29.4623 2.84498 27.5743ZM21.0004 45.1875C14.428 45.1875 9.08097 39.5192 9.08097 32.5519V20.826H12.4914C18.4266 20.826 24.0872 18.3925 28.1322 14.1256C30.8216 14.4215 32.92 16.6829 32.92 19.4197V32.5519C32.9199 39.5192 27.5728 45.1875 21.0004 45.1875ZM35.7644 31.1031V24.0456C37.6507 24.1396 39.156 25.6864 39.156 27.5743C39.156 29.4623 37.6507 31.0091 35.7644 31.1031Z" fill="#365EDC"/>
<path d="M15.2963 26.1564C15.9609 26.144 16.735 26.7092 16.7433 27.553L19.5876 27.5192C19.6116 25.3272 17.5984 23.2691 15.262 23.3441C13.0454 23.3208 10.9629 25.3103 11.0395 27.6212L13.8838 27.5872C13.8742 26.8077 14.5079 26.1658 15.2963 26.1564Z" fill="#365EDC"/>
<path d="M26.7147 23.3437C24.397 23.3336 22.3978 25.2714 22.4392 27.6211L25.2835 27.5872C25.2739 26.8077 25.9076 26.1658 26.696 26.1564C27.3624 26.1426 28.1338 26.7096 28.143 27.553L30.9873 27.5192C31.0107 25.3472 29.0305 23.2961 26.7147 23.3437Z" fill="#365EDC"/>
<path d="M12.8417 33.3472C12.8417 37.7953 16.5018 41.4141 21.0004 41.4141C25.4991 41.4141 29.1591 37.7953 29.1591 33.3472V31.941H12.8417V33.3472ZM26.1214 34.7535C25.498 36.9703 23.4383 38.6016 21.0004 38.6016C18.5626 38.6016 16.5028 36.9703 15.8795 34.7535H26.1214Z" fill="#365EDC"/>
</svg>
