<svg width="38" height="38" viewBox="0 0 38 38" fill="none" xmlns="http://www.w3.org/2000/svg">
<path d="M20.4849 17.0703H17.5161V20.0391H20.4849V17.0703Z" fill="#365EDC"/>
<path d="M33.5474 2.96875H31.7661V0H28.7974V2.96875H9.20361V0H6.23486V2.96875H4.45361C1.99816 2.96875 0.000488281 4.96642 0.000488281 7.42188V33.5469C0.000488281 36.0023 1.99816 38 4.45361 38H19.725C18.6987 37.1529 17.8048 36.1511 17.0781 35.0312H4.45361C3.63513 35.0312 2.96924 34.3654 2.96924 33.5469V13.9531H35.0317V17.0777C36.1516 17.8043 37.1534 18.6983 38.0005 19.7245V7.42188C38.0005 4.96642 36.0028 2.96875 33.5474 2.96875ZM35.0317 10.9844H2.96924V7.42188C2.96924 6.60339 3.63513 5.9375 4.45361 5.9375H6.23486V8.90625H9.20361V5.9375H28.7974V8.90625H31.7661V5.9375H33.5474C34.3658 5.9375 35.0317 6.60339 35.0317 7.42188V10.9844Z" fill="#365EDC"/>
<path d="M27.981 17.9609C22.4562 17.9609 17.9614 22.4557 17.9614 27.9805C17.9614 33.5052 22.4562 38 27.981 38C33.5057 38 38.0005 33.5052 38.0005 27.9805C38.0005 22.4557 33.5057 17.9609 27.981 17.9609ZM27.981 35.0312C24.0932 35.0312 20.9302 31.8683 20.9302 27.9805C20.9302 24.0927 24.0932 20.9297 27.981 20.9297C31.8688 20.9297 35.0317 24.0927 35.0317 27.9805C35.0317 31.8683 31.8688 35.0312 27.981 35.0312Z" fill="#365EDC"/>
<path d="M29.3911 23.0078H26.4224V29.4648H31.9146V26.4961H29.3911V23.0078Z" fill="#365EDC"/>
<path d="M14.5474 23.0078H11.5786V25.9766H14.5474V23.0078Z" fill="#365EDC"/>
<path d="M8.60986 23.0078H5.64111V25.9766H8.60986V23.0078Z" fill="#365EDC"/>
<path d="M8.60986 17.0703H5.64111V20.0391H8.60986V17.0703Z" fill="#365EDC"/>
<path d="M8.60986 28.9453H5.64111V31.9141H8.60986V28.9453Z" fill="#365EDC"/>
<path d="M14.5474 17.0703H11.5786V20.0391H14.5474V17.0703Z" fill="#365EDC"/>
<path d="M14.5474 28.9453H11.5786V31.9141H14.5474V28.9453Z" fill="#365EDC"/>
</svg>
