<svg width="44" height="34" viewBox="0 0 44 34" fill="none" xmlns="http://www.w3.org/2000/svg">
<path d="M5.87387 28.0307C5.1042 27.9682 4.3956 28.0682 3.67479 27.9432C1.56123 27.5556 0.00965113 25.7427 0.00965113 23.5547C-0.002566 17.5535 -0.002566 11.5522 0.00965113 5.55096C0.0218683 2.93791 1.95217 1.0125 4.5422 1C11.0662 0.987497 17.5779 1 24.1018 1C27.2294 1 30.357 1 33.4968 1C36.2457 1 38.1149 2.9254 38.1271 5.7385C38.1271 6.13858 38.1271 6.55117 38.1271 7.00126C38.6036 7.00126 39.0556 7.00126 39.5076 7.00126C42.0732 7.01377 43.9913 8.96418 43.9913 11.5897C44.0035 17.516 44.0035 23.4297 43.9913 29.356C43.9913 32.044 42.0855 33.9944 39.4588 33.9944C29.7584 33.9944 20.0702 33.9944 10.3698 33.9944C7.80418 33.9944 5.89831 32.0315 5.88609 29.406C5.87387 28.9559 5.87387 28.5058 5.87387 28.0307ZM41.0005 21C30.225 21 19.5693 21 8.8182 21C8.8182 24.0381 8.79377 26.5804 8.8182 29.5935C8.8182 30.4062 9.50236 31.0063 10.3453 31.0063C20.0702 31.0063 29.795 31.0063 39.5199 31.0063C40.4484 31.0063 41.047 30.3687 41.0592 29.406C41.0592 28.6308 41.0592 27.8431 41.0592 27.068C41.0592 24.8925 41.0005 23.188 41.0005 21ZM5.87387 25.005C5.87387 24.7675 5.87387 24.58 5.87387 24.3924C5.87387 20.1915 5.87387 15.9907 5.87387 11.7773C5.87387 11.5022 5.87387 11.2146 5.91052 10.9396C6.27704 8.56409 8.04852 7.00126 10.4064 7.00126C18.4942 7.00126 26.5941 7.00126 34.6819 7.00126C34.8407 7.00126 35.0117 7.05127 35.195 6.95125C35.195 6.55117 35.195 6.15108 35.195 5.7385C35.195 4.58825 34.6208 4.00063 33.509 4.00063C23.8697 4.00063 14.2426 4.00063 4.60329 4.00063C3.51596 4.00063 2.94176 4.58826 2.94176 5.70099C2.94176 8.01398 2.94176 10.327 2.94176 12.6399C2.94176 16.2157 2.94176 19.7915 2.94176 23.3797C2.94176 24.3924 3.5404 25.005 4.5422 25.005C4.9698 25.005 5.39741 25.005 5.87387 25.005ZM41.0592 12.99C41.0592 12.5774 41.0592 12.2149 41.0592 11.8648C41.0592 10.5395 40.5461 10.0144 39.2633 10.0144C31.6887 10.0144 24.1141 10.0144 16.5517 10.0144C14.487 10.0144 12.4345 10.0144 10.3698 10.0144C9.52679 10.0144 8.87928 10.5645 8.8182 11.3522C8.78155 11.8898 8.80599 12.4399 8.80599 12.99C19.5693 12.99 30.2959 12.99 41.0592 12.99ZM41.047 16.0282C30.2837 16.0282 19.5571 16.0282 8.83042 16.0282C8.83042 16.5283 8.8182 17.5193 8.8182 17.9944C19.5693 17.9944 30.2616 18 41.0005 18C41.0005 17.5124 41.047 16.5283 41.047 16.0282Z" fill="#365EDC"/>
<path d="M35.1168 29.0253C34.4204 29.0253 33.7118 29.0378 33.0154 29.0253C32.1358 29.0128 31.4883 28.3502 31.5005 27.5C31.5127 26.6623 32.1602 26.0372 33.0154 26.0247C34.4448 26.0122 35.8742 26.0122 37.3158 26.0247C38.171 26.0247 38.8185 26.6748 38.8308 27.5C38.843 28.3502 38.1955 29.0128 37.3158 29.0253C36.9493 29.0253 36.5828 29.0253 36.2163 29.0253C35.8498 29.0253 35.4833 29.0253 35.1168 29.0253Z" fill="#365EDC"/>
</svg>
