<svg width="40" height="40" viewBox="0 0 40 40" fill="none" xmlns="http://www.w3.org/2000/svg">
<path d="M20.001 0C8.94751 0 0.000976562 8.94501 0.000976562 20C0.000976562 23.508 0.915894 26.9342 2.65326 29.9561L0.076355 37.9584C-0.103394 38.5162 0.0443116 39.1278 0.45874 39.5422C0.869202 39.9527 1.47925 40.1059 2.0426 39.9246L10.0449 37.3477C13.0668 39.0851 16.493 40 20.001 40C31.0544 40 40.001 31.055 40.001 20C40.001 8.94653 31.056 0 20.001 0ZM20.001 36.875C16.8323 36.875 13.7437 35.9909 11.0688 34.3182C10.684 34.0778 10.2061 34.0128 9.76141 34.1559L3.98474 36.0162L5.84509 30.2396C5.98608 29.8013 5.92657 29.3228 5.68243 28.9322C4.01007 26.2573 3.12598 23.1686 3.12598 20C3.12598 10.6952 10.6962 3.125 20.001 3.125C29.3058 3.125 36.876 10.6952 36.876 20C36.876 29.3048 29.3058 36.875 20.001 36.875Z" fill="#EDF2FC"/>
<path d="M20.001 9C16.6926 9 14.001 11.7546 14.001 15.1411C14.001 16.0645 14.7326 16.8134 15.635 16.8134C16.5373 16.8134 17.269 16.0645 17.269 15.1411C17.269 13.5992 18.4944 12.3445 20.001 12.3445C21.5075 12.3445 22.7329 13.5992 22.7329 15.1411C22.7329 16.683 21.5075 17.9369 20.001 17.9369C19.0986 17.9369 18.3669 18.6858 18.3669 19.6091V23.3841C18.3669 24.3074 19.0986 25.0562 20.001 25.0562C20.9033 25.0562 21.6349 24.3074 21.6349 23.3841V21.0499C24.1517 20.3203 26.001 17.9476 26.001 15.141C26.001 11.7546 23.3094 9 20.001 9Z" fill="#EDF2FC"/>
<path d="M20.001 26.3217C18.7387 26.3217 17.7152 27.3691 17.7152 28.6616C17.7152 29.9527 18.7387 31 20.001 31C21.2633 31 22.2867 29.9526 22.2867 28.6616C22.2867 27.3691 21.2633 26.3217 20.001 26.3217Z" fill="#EDF2FC"/>
</svg>
