<svg width="45" height="51" viewBox="0 0 45 51" fill="none" xmlns="http://www.w3.org/2000/svg">
<path d="M42.0005 42.2921V20.7898L44.5611 18.2392C45.1469 17.6557 45.1469 16.7097 44.5611 16.1262C43.9754 15.5426 43.0256 15.5426 42.4398 16.1262L41.3892 17.1727C40.6086 15.8397 39.1583 14.9414 37.5005 14.9414H33.364L30.3528 11.942C33.4978 11.7596 36.0005 9.1541 36.0005 5.97656C36.0005 2.68109 33.3089 0 30.0005 0C26.6921 0 24.0005 2.68109 24.0005 5.97656C24.0005 7.08561 24.3064 8.12444 24.837 9.01554C23.5522 9.20889 22.4793 9.91611 21.7978 10.8994C21.3625 11.5259 14.3692 25.7083 10.7144 33.0703H4.50049C2.01919 33.0703 0.000488281 35.0811 0.000488281 37.5527C0.000488281 40.0243 2.01919 42.0352 4.50049 42.0352H13.5005C15.2162 42.0352 16.7586 41.0858 17.5257 39.5575L21.2791 32.0801L24.0005 33.9579V40.541C24.0005 41.0648 24.092 41.5675 24.2585 42.0352H19.5005C17.0192 42.0352 15.0005 44.046 15.0005 46.5176C15.0005 48.9892 17.0192 51 19.5005 51C21.9818 51 24.0005 48.9892 24.0005 46.5176C24.0005 45.9938 23.909 45.4811 23.7425 45.0135H36.2585C36.092 45.4811 36.0005 45.9938 36.0005 46.5176C36.0005 48.9892 38.0192 51 40.5005 51C42.9818 51 45.0005 48.9892 45.0005 46.5176C45.0005 44.5697 43.7464 42.9089 42.0005 42.2921ZM19.5005 48.0117C18.6734 48.0117 18.0005 47.3414 18.0005 46.5176C18.0005 45.6937 18.6734 45.0234 19.5005 45.0234C20.3276 45.0234 21.0005 45.6937 21.0005 46.5176C21.0005 47.3414 20.3276 48.0117 19.5005 48.0117ZM30.0005 2.98828C31.6547 2.98828 33.0005 4.32882 33.0005 5.97656C33.0005 7.6243 31.6547 8.96484 30.0005 8.96484C28.3463 8.96484 27.0005 7.6243 27.0005 5.97656C27.0005 4.32882 28.3463 2.98828 30.0005 2.98828ZM14.8424 38.2211C14.5867 38.7304 14.0725 39.0469 13.5005 39.0469H4.50049C3.67339 39.0469 3.00049 38.3766 3.00049 37.5527C3.00049 36.7289 3.67339 36.0586 4.50049 36.0586H11.646C12.2166 36.0586 12.7377 35.7362 12.9906 35.2268L16.3031 28.5543C16.6159 28.8684 16.5743 28.8161 18.7582 30.4202L14.8424 38.2211ZM30.0007 40.541C30.0007 41.3649 29.3278 42.0352 28.5007 42.0352C27.6736 42.0352 27.0005 41.3649 27.0005 40.541V33.1754C27.0005 32.6853 26.7592 32.2263 26.3547 31.9472L18.6906 26.6586C18.1056 26.2529 17.896 25.6562 18.0443 25.0468C19.5627 21.9883 24.0857 12.8567 24.2682 12.5948C24.8091 11.8235 25.9077 11.7405 26.5608 12.391L31.6819 17.4921C31.9632 17.7723 32.3447 17.9298 32.7425 17.9298H37.5005C38.3276 17.9298 39.0005 18.6001 39.0005 19.4239C39.0005 19.4695 38.9977 19.5144 38.9936 19.559L37.636 20.9112C37.5913 20.9152 37.5463 20.918 37.5005 20.918H31.5005C31.1059 20.918 30.7194 20.7584 30.4401 20.4801L27.3833 17.4352C26.6605 16.7153 25.4388 16.9116 24.9811 17.8234L22.0262 23.7092C21.6929 24.373 21.8993 25.1799 22.5109 25.6039L29.3078 30.3162C29.316 30.3219 29.3243 30.3276 29.3327 30.333C29.751 30.6108 30.0007 31.0755 30.0007 31.5762V40.541ZM32.7425 42.0352C32.909 41.5675 33.0005 41.0648 33.0005 40.541V31.5762C33.0005 30.0795 32.2568 28.6899 31.0102 27.8557L25.2897 23.8896L26.7334 21.014L28.3188 22.5931C29.1688 23.4399 30.2988 23.8963 31.5005 23.8963H34.7031C34.371 24.4677 34.4488 25.2208 34.9398 25.7098C35.5255 26.2933 36.4754 26.2933 37.0611 25.7098L39.0005 23.7781V42.0352H32.7425ZM40.5005 48.0117C39.6734 48.0117 39.0005 47.3414 39.0005 46.5176C39.0005 45.6937 39.6734 45.0234 40.5005 45.0234C41.3276 45.0234 42.0005 45.6937 42.0005 46.5176C42.0005 47.3414 41.3276 48.0117 40.5005 48.0117Z" fill="#EDF2FC"/>
<path d="M16.5005 8.96484H1.50049C0.672088 8.96484 0.000488281 9.63382 0.000488281 10.459C0.000488281 11.2841 0.672088 11.9531 1.50049 11.9531H16.5005C17.3289 11.9531 18.0005 11.2841 18.0005 10.459C18.0005 9.63382 17.3289 8.96484 16.5005 8.96484Z" fill="#EDF2FC"/>
<path d="M4.50049 20.918H1.50049C0.672088 20.918 0.000488281 21.5869 0.000488281 22.4121C0.000488281 23.2373 0.672088 23.9062 1.50049 23.9062H4.50049C5.32889 23.9062 6.00049 23.2373 6.00049 22.4121C6.00049 21.5869 5.32889 20.918 4.50049 20.918Z" fill="#EDF2FC"/>
<path d="M10.5005 14.9414H1.50049C0.672088 14.9414 0.000488281 15.6104 0.000488281 16.4355C0.000488281 17.2607 0.672088 17.9297 1.50049 17.9297H10.5005C11.3289 17.9297 12.0005 17.2607 12.0005 16.4355C12.0005 15.6104 11.3289 14.9414 10.5005 14.9414Z" fill="#EDF2FC"/>
</svg>
