<svg width="38" height="38" viewBox="0 0 38 38" fill="none" xmlns="http://www.w3.org/2000/svg">
<path d="M36.1929 33.8764C35.5948 34.0008 35.1562 34.4688 35.0402 35.0315H26.7332C27.3444 33.3659 28.9502 32.2111 30.7622 32.2111H30.8399C30.8532 32.2111 30.8663 32.2094 30.8793 32.2091C33.2987 32.1671 35.2542 30.1872 35.2542 27.7579C35.2542 25.3023 33.2566 23.3048 30.801 23.3048C28.3457 23.3048 26.3482 25.3023 26.3482 27.7579C26.3482 28.6764 26.6277 29.5308 27.1063 30.2405C26.2459 30.7453 25.4926 31.4226 24.9009 32.2303C24.3089 31.4226 23.5557 30.7453 22.6955 30.2405C23.1739 29.5308 23.4537 28.6764 23.4537 27.7579C23.4537 25.3023 21.4558 23.3048 19.0005 23.3048C16.5449 23.3048 14.5474 25.3023 14.5474 27.7579C14.5474 28.6764 14.8272 29.5308 15.3055 30.2405C14.4451 30.7453 13.6921 31.4226 13.1001 32.2303C12.5081 31.4226 11.7552 30.7453 10.8947 30.2405C11.3734 29.5308 11.6529 28.6764 11.6529 27.7579C11.6529 25.3023 9.65532 23.3048 7.19972 23.3048C4.74441 23.3048 2.74659 25.3023 2.74659 27.7579C2.74659 28.6764 3.02636 29.5308 3.50472 30.2405C1.77594 31.255 0.480882 32.9673 0.0529633 35.0277C-0.0992434 35.7604 0.0836946 36.513 0.555101 37.0923C1.02477 37.6692 1.72028 38 2.46363 38H35.5374C36.2808 38 36.9766 37.6692 37.4459 37.0923C37.9174 36.5127 38.1003 35.7604 37.9481 35.0277C37.7814 34.2252 36.9954 33.7095 36.1929 33.8764ZM18.9617 32.2111H19.0394C20.8514 32.2111 22.4575 33.3659 23.0684 35.0315H14.9324C15.5435 33.3659 17.1497 32.2111 18.9617 32.2111ZM30.801 26.2736C31.6195 26.2736 32.2854 26.9395 32.2854 27.7579C32.2854 28.5764 31.6195 29.2423 30.801 29.2423C29.9826 29.2423 29.3167 28.5764 29.3167 27.7579C29.3167 26.9395 29.9826 26.2736 30.801 26.2736ZM19.0005 26.2736C19.819 26.2736 20.4849 26.9395 20.4849 27.7579C20.4849 28.5764 19.819 29.2423 19.0005 29.2423C18.1821 29.2423 17.5161 28.5764 17.5161 27.7579C17.5161 26.9395 18.1821 26.2736 19.0005 26.2736ZM7.19972 26.2736C8.01816 26.2736 8.6841 26.9395 8.6841 27.7579C8.6841 28.5764 8.01816 29.2423 7.19972 29.2423C6.38128 29.2423 5.71534 28.5764 5.71534 27.7579C5.71534 26.9395 6.38128 26.2736 7.19972 26.2736ZM3.13102 35.0315C3.74187 33.3659 5.34889 32.2111 7.16087 32.2111H7.23857C9.05084 32.2111 10.6576 33.3659 11.2687 35.0315H3.13102ZM15.3345 19.6506C15.7871 19.9112 16.2834 20.0417 16.7795 20.0417C17.2787 20.0417 17.7779 19.9098 18.2325 19.6459L24.6043 15.9483C25.5103 15.4227 26.051 14.4827 26.051 13.4338C26.051 12.3849 25.5103 11.4446 24.6043 10.919L18.2325 7.22165C17.326 6.69545 16.2425 6.69371 15.3342 7.21672C14.4233 7.74148 13.8794 8.68344 13.8794 9.73614V17.1312C13.8794 18.1842 14.4233 19.1258 15.3345 19.6506ZM16.8482 9.85066L23.0231 13.4335L16.8482 17.0166V9.85066ZM38.0003 5.93759V19.9649C38.0003 20.6073 37.8979 21.2399 37.6961 21.845C37.4886 22.4666 36.9096 22.86 36.2883 22.86C36.1323 22.86 35.974 22.8351 35.8181 22.7832C35.0405 22.5237 34.6204 21.6829 34.8799 20.9054C34.9805 20.6038 35.0315 20.2873 35.0315 19.9649V5.93759C35.0315 4.3004 33.6996 2.9688 32.0628 2.9688H5.938C4.30113 2.9688 2.96924 4.3004 2.96924 5.93759V19.9649C2.96924 20.2873 3.02027 20.6038 3.12087 20.9054C3.38035 21.6829 2.96026 22.5237 2.1827 22.7832C1.40485 23.0424 0.564088 22.6226 0.304612 21.845C0.102829 21.2399 0.000488281 20.6073 0.000488281 19.9649V5.93759C0.000488281 2.66351 2.66396 0 5.938 0H32.0628C35.3368 0 38.0003 2.66351 38.0003 5.93759Z" fill="#EDF2FC"/>
</svg>
