<svg width="38" height="35" viewBox="0 0 38 35" fill="none" xmlns="http://www.w3.org/2000/svg">
<path d="M8.83252 11.9386C7.19565 11.9386 5.86377 13.2692 5.86377 14.9047V26.1017C5.86377 27.7371 7.19565 29.0678 8.83252 29.0678H14.4731C16.11 29.0678 17.4419 27.7371 17.4419 26.1017V14.9047C17.4419 13.2692 16.11 11.9386 14.4731 11.9386H8.83252ZM14.4731 26.1017H8.83252V14.9047H14.4731L14.4749 26.1017C14.4749 26.1017 14.4746 26.1017 14.4731 26.1017ZM31.9888 20.5403C31.9888 21.3594 31.3243 22.0233 30.5044 22.0233H21.895C21.0751 22.0233 20.4106 21.3594 20.4106 20.5403C20.4106 19.7211 21.0751 19.0572 21.895 19.0572H30.5044C31.3243 19.0572 31.9888 19.7211 31.9888 20.5403ZM31.9888 26.1758C31.9888 26.995 31.3243 27.6589 30.5044 27.6589H21.895C21.0751 27.6589 20.4106 26.995 20.4106 26.1758C20.4106 25.3567 21.0751 24.6928 21.895 24.6928H30.5044C31.3243 24.6928 31.9888 25.3567 31.9888 26.1758ZM31.9888 14.9047C31.9888 15.7238 31.3243 16.3877 30.5044 16.3877H21.895C21.0751 16.3877 20.4106 15.7238 20.4106 14.9047C20.4106 14.0855 21.0751 13.4216 21.895 13.4216H30.5044C31.3243 13.4216 31.9888 14.0855 31.9888 14.9047ZM33.5474 0H4.45361C1.99802 0 0.000488281 1.99575 0.000488281 4.44915V29.0678C0.000488281 32.3389 2.66396 35 5.93799 35H32.063C35.337 35 38.0005 32.3389 38.0005 29.0678C38.0005 28.2486 37.336 27.5847 36.5161 27.5847C35.6962 27.5847 35.0317 28.2486 35.0317 29.0678C35.0317 30.7032 33.6999 32.0339 32.063 32.0339H5.93799C4.30112 32.0339 2.96924 30.7032 2.96924 29.0678V8.97246H35.0317V21.6525C35.0317 22.4717 35.6962 23.1356 36.5161 23.1356C37.336 23.1356 38.0005 22.4717 38.0005 21.6525V4.44915C38.0005 1.99575 36.003 0 33.5474 0ZM27.5356 2.9661C28.3541 2.9661 29.02 3.63145 29.02 4.44915C29.02 5.26686 28.3541 5.9322 27.5356 5.9322C26.7172 5.9322 26.0513 5.26686 26.0513 4.44915C26.0513 3.63145 26.7172 2.9661 27.5356 2.9661ZM34.9575 4.44915C34.9575 5.26686 34.2916 5.9322 33.4731 5.9322C32.6547 5.9322 31.9888 5.26686 31.9888 4.44915C31.9888 3.63145 32.6547 2.9661 33.4731 2.9661C34.2916 2.9661 34.9575 3.63145 34.9575 4.44915ZM2.96924 4.44915C2.96924 3.63145 3.63518 2.9661 4.45361 2.9661H23.3379C23.173 3.43042 23.0825 3.92922 23.0825 4.44915C23.0825 4.9969 23.1825 5.52147 23.3646 6.00636H2.96924V4.44915Z" fill="#EDF2FC"/>
</svg>
