<svg width="200" height="60" viewBox="0 0 200 60" fill="none" xmlns="http://www.w3.org/2000/svg">
<path fill-rule="evenodd" clip-rule="evenodd" d="M0.000488281 3C0.000488281 1.34315 1.34363 0 3.00049 0H197C198.657 0 200 1.34315 200 3V6C197.791 6 196 7.79086 196 10C196 12.2091 197.791 14 200 14V26C197.791 26 196 27.7909 196 30C196 32.2091 197.791 34 200 34V46C197.791 46 196 47.7909 196 50C196 52.2091 197.791 54 200 54V57C200 58.6569 198.657 60 197 60H3.00049C1.34363 60 0.000488281 58.6569 0.000488281 57V54C2.20963 54 4.00049 52.2091 4.00049 50C4.00049 47.7909 2.20963 46 0.000488281 46V34C2.20963 34 4.00049 32.2091 4.00049 30C4.00049 27.7909 2.20963 26 0.000488281 26V14C2.20963 14 4.00049 12.2091 4.00049 10C4.00049 7.79086 2.20963 6 0.000488281 6V3Z" fill="#FFD600"/>
</svg>
