<svg width="32" height="32" viewBox="0 0 32 32" fill="none" xmlns="http://www.w3.org/2000/svg">
<path d="M30.2701 5.9429C29.7837 5.25258 28.9623 4.89809 28.1264 5.01792L5.72167 8.23021C4.84309 8.3562 4.14254 8.9638 3.89339 9.81595C3.6442 10.6683 3.90715 11.5577 4.57968 12.1372C4.62919 12.1799 4.68274 12.2177 4.73945 12.2501L10.6937 15.6464L9.51412 22.4971C9.35928 23.3965 9.76542 24.2802 10.549 24.7484C11.32 25.212 12.3003 25.1599 13.0219 24.593C13.0234 24.5918 13.0251 24.5905 13.0267 24.5893L15.6496 22.511L18.4059 28.5352C18.7287 29.347 19.4876 29.8833 20.3461 29.9304C21.2323 29.983 22.0403 29.5278 22.455 28.7425C22.4731 28.7081 22.4892 28.6728 22.5033 28.6366L23.7529 25.4252C23.9563 24.9025 23.6974 24.3138 23.1747 24.1104C22.652 23.9069 22.0632 24.1659 21.8599 24.6886L20.6394 27.8251C20.5986 27.8811 20.5406 27.9071 20.4663 27.9027C20.3801 27.8974 20.3198 27.8538 20.2886 27.7725C20.2811 27.753 20.273 27.7337 20.2643 27.7146L17.2106 21.0409L24.9576 11.185C25.2385 10.8277 25.2478 10.3274 24.9804 9.95985C24.7129 9.59237 24.234 9.44714 23.8077 9.60449L11.8999 13.996L5.86486 10.5536C5.83187 10.5054 5.82453 10.4492 5.84306 10.386C5.86758 10.3021 5.92376 10.2533 6.00995 10.2409L28.4147 7.02863C28.4965 7.01703 28.562 7.04527 28.6095 7.11281C28.6575 7.1809 28.662 7.25286 28.6231 7.32667C28.605 7.36105 28.5888 7.39634 28.5748 7.43251L23.6874 19.9923C23.484 20.515 23.7429 21.1037 24.2656 21.3071C24.788 21.5107 25.377 21.2516 25.5804 20.7289L30.4497 8.21543C30.8107 7.48034 30.744 6.6156 30.2701 5.9429ZM21.1419 12.7526L15.2758 20.2156L11.768 22.995C11.7414 23.0158 11.682 23.0592 11.591 23.0047C11.4976 22.9489 11.5106 22.8738 11.5161 22.8418L12.7184 15.8591L21.1419 12.7526Z" fill="white"/>
</svg>
