<svg width="24" height="24" viewBox="0 0 24 24" fill="none" xmlns="http://www.w3.org/2000/svg">
<path d="M17.5075 14.3072L17.4985 14.3822C15.2995 13.2862 15.0695 13.1402 14.7855 13.5662C14.5885 13.8612 14.0145 14.5302 13.8415 14.7282C13.6665 14.9232 13.4925 14.9382 13.1955 14.8032C12.8955 14.6532 11.9325 14.3382 10.7925 13.3182C9.90449 12.5232 9.30849 11.5482 9.13249 11.2482C8.83949 10.7422 9.45249 10.6702 10.0105 9.61426C10.1105 9.40426 10.0595 9.23927 9.98549 9.09027C9.91049 8.94027 9.31349 7.4703 9.06349 6.88431C8.82349 6.30032 8.57649 6.37432 8.39149 6.37432C7.81549 6.32432 7.39449 6.33232 7.02349 6.71831C5.40949 8.49228 5.81649 10.3222 7.19749 12.2682C9.91149 15.8201 11.3575 16.4741 14.0015 17.3821C14.7155 17.6091 15.3665 17.5771 15.8815 17.5031C16.4555 17.4121 17.6485 16.7821 17.8975 16.0771C18.1525 15.3722 18.1525 14.7872 18.0775 14.6522C18.0035 14.5172 17.8075 14.4422 17.5075 14.3072Z" fill="white"/>
<path d="M20.5205 3.44937C12.8315 -3.9835 0.106488 1.40741 0.101488 11.8932C0.101488 13.9892 0.650488 16.0331 1.69649 17.8381L0.000488281 24L6.33549 22.348C14.2405 26.618 23.9965 20.9481 24.0005 11.8992C24.0005 8.72328 22.7605 5.73433 20.5055 3.48837L20.5205 3.44937ZM22.0025 11.8662C21.9965 19.4991 13.6175 24.266 6.99049 20.3701L6.63049 20.1561L2.88049 21.1311L3.88549 17.4861L3.64649 17.1111C-0.477512 10.5462 4.26049 1.9664 12.0725 1.9664C14.7265 1.9664 17.2175 3.00138 19.0935 4.87634C20.9685 6.73531 22.0025 9.22627 22.0025 11.8662Z" fill="white"/>
</svg>
