<svg width="38" height="39" viewBox="0 0 38 39" fill="none" xmlns="http://www.w3.org/2000/svg">
<path d="M38.0005 8.58379C37.6742 9.30864 37.1625 9.74355 36.3393 9.72066C35.7089 9.69777 35.0786 9.71303 34.4482 9.71303C34.3369 9.71303 34.2257 9.71303 34.107 9.71303C33.8104 10.56 33.2097 10.8881 32.3791 10.8575C31.3928 10.827 30.399 10.9262 29.4127 10.8041C27.2694 10.5447 25.8085 9.34679 25.0001 7.30194C24.9704 7.23327 24.9482 7.15697 24.9185 7.0883C24.9111 7.08067 24.9037 7.07304 24.8592 7.04252C24.5329 7.04252 24.1769 7.04252 23.8209 7.04252C19.6828 7.04252 15.5372 7.01963 11.399 7.05778C7.16442 7.09593 3.51571 10.56 3.0485 14.8862C2.98917 15.4356 2.98917 15.9773 2.98917 16.5267C2.98917 21.242 2.99659 25.965 2.98175 30.6804C2.98175 31.6418 3.004 32.5955 3.4638 33.4577C4.36115 35.1439 5.74795 36.0443 7.63164 35.9604C9.46341 35.8764 10.7909 34.8998 11.5028 33.1754C12.2222 31.4434 11.8885 29.8258 10.7019 28.3074C10.5091 28.6889 10.3311 29.0323 10.1605 29.368C9.67847 30.3141 9.21126 31.2603 8.7218 32.1987C8.36583 32.8702 7.66872 33.1525 6.98644 32.9312C6.29674 32.71 5.89627 32.0767 5.94819 31.3213C5.97043 31.0619 6.07426 30.833 6.1855 30.6041C6.74912 29.4748 7.32016 28.3532 7.8912 27.2316C7.94311 27.1324 7.98761 27.0332 8.05436 26.8882C7.80221 26.8654 7.58714 26.8425 7.37208 26.8272C6.51181 26.7738 5.91852 26.1252 5.94077 25.263C5.96302 24.4237 6.62305 23.7752 7.4759 23.7904C8.06919 23.7981 8.66247 23.8591 9.23351 24.027C9.38925 24.0728 9.50049 24.0956 9.60431 23.9125C10.1754 22.9283 10.8725 22.0355 11.7253 21.242C11.2284 20.6621 10.739 20.0975 10.2495 19.5253C9.53015 18.686 8.78854 17.8695 8.08402 17.015C7.37949 16.1528 7.72805 14.9091 8.74405 14.5734C8.87012 14.5352 9.01103 14.5047 9.14452 14.5047C10.739 14.4971 12.3334 14.4894 13.9279 14.5047C14.5731 14.5123 15.0181 14.8786 15.2405 15.4966C15.4556 16.0994 15.3221 16.6487 14.8846 17.1065C14.5805 17.4194 14.1949 17.5415 13.7722 17.5415C13.3791 17.5415 12.986 17.5415 12.4966 17.5415C13.1047 18.2358 13.6609 18.8843 14.2245 19.5329C15.4408 18.9606 16.7015 18.6173 17.9993 18.4418C19.2156 18.2739 20.4392 18.2968 21.6629 18.2968C22.3303 18.2968 22.9978 18.2968 23.6652 18.2968C23.7987 18.2968 23.9248 18.3121 24.0286 18.1671C24.5106 17.4651 25.0075 16.7708 25.5341 16.0154C24.7257 16.0154 23.9767 16.0154 23.2277 16.0154C22.9681 16.0154 22.7085 16.0307 22.449 16.0002C21.6332 15.901 21.0622 15.2143 21.1067 14.4131C21.1586 13.5891 21.7593 12.9787 22.5899 12.9711C24.5181 12.9634 26.4462 12.9711 28.3744 12.9634C28.9825 12.9634 29.4572 13.2229 29.739 13.7798C30.0282 14.3521 29.9615 14.9091 29.5981 15.4279C28.5376 16.9387 27.4771 18.4571 26.4017 19.9602C26.246 20.1738 26.2386 20.3417 26.335 20.5782C26.7874 21.6769 27.2175 22.7757 27.6551 23.8973C28.8713 23.6836 30.0579 23.7523 31.2222 24.1185C34.248 25.057 36.4283 28.0709 36.4209 31.3213C36.4209 32.2293 35.7979 32.9007 34.9673 32.9083C34.1219 32.916 33.4915 32.2674 33.4619 31.3671C33.3951 29.1238 32.0157 27.3918 29.9021 26.9111C29.5684 26.8348 29.2273 26.7891 28.8268 26.8348C29.0493 27.4071 29.2643 27.9564 29.4794 28.4982C29.7761 29.2459 30.0801 29.9937 30.3693 30.749C30.6957 31.596 30.3619 32.4505 29.5981 32.7863C28.8194 33.122 27.9739 32.7557 27.6254 31.8935C27.1063 30.6041 26.602 29.3146 26.0754 27.9793C25.3635 28.6279 24.8963 29.3985 24.7035 30.3294C24.3104 32.2216 24.8444 33.8239 26.335 34.999C27.8479 36.1969 29.5091 36.2656 31.1999 35.3576C31.9861 34.9379 32.7277 35.0142 33.2171 35.617C33.8178 36.3571 33.625 37.4329 32.7944 37.9365C30.2507 39.4931 27.0024 39.3328 24.6367 37.5092C23.0348 36.2732 22.0262 34.6404 21.7296 32.5955C21.2921 29.5664 22.3303 27.1324 24.6441 25.2554C24.8369 25.0952 24.9037 24.996 24.7925 24.7366C24.3549 23.6913 23.9396 22.6307 23.5317 21.5701C23.4576 21.387 23.376 21.3183 23.1832 21.3183C21.5813 21.3488 19.972 21.2344 18.3701 21.4404C15.6855 21.7837 13.5348 23.0122 12.1184 25.4767C12.4743 25.8353 12.8377 26.171 13.1492 26.5678C16.7312 31.1305 14.2023 37.9518 8.57348 38.8903C4.65037 39.5465 0.883006 36.8225 0.133981 32.7939C0.104317 32.6413 0.141394 32.4658 0.000488281 32.3437C0.000488281 26.4457 0.000488281 20.5401 0.000488281 14.642C0.119146 14.6039 0.07465 14.4971 0.0894822 14.4208C0.237804 13.406 0.467702 12.4217 0.83109 11.4679C2.50712 7.07304 6.7862 4.0134 11.3768 3.96762C14.1949 3.9371 17.013 3.95999 19.8237 3.95999C21.4923 3.95999 23.1609 3.95999 24.8221 3.95999C24.8518 3.89132 24.8889 3.83028 24.9037 3.76924C25.5637 1.80832 26.869 0.602773 28.8268 0.114451C28.9084 0.0915604 29.0344 0.129711 29.0789 0C30.3619 0 31.6523 0 32.9353 0C33.4248 0.183121 33.8549 0.442541 34.0181 0.976643C34.0922 1.20554 34.196 1.22844 34.3889 1.22844C34.9822 1.22081 35.568 1.22844 36.1613 1.22081C37.2144 1.22081 37.5852 1.46497 37.9782 2.44161C37.9782 2.67051 37.9782 2.89941 37.9782 3.12831C37.6074 4.04392 36.9177 4.34149 35.9981 4.27282C35.39 4.22704 34.7745 4.26519 34.1515 4.26519C34.1515 5.06634 34.1515 5.83698 34.1515 6.6305C34.8338 6.6305 35.5013 6.6305 36.1613 6.6305C37.2218 6.6305 37.6 6.88992 37.9782 7.85894C38.0005 8.12599 38.0005 8.35489 38.0005 8.58379ZM31.1629 7.81315C31.1629 6.21848 31.1629 4.66195 31.1629 3.09016C30.7105 3.09016 30.2803 3.08253 29.8502 3.09016C28.6785 3.12068 27.7218 4.08207 27.6328 5.31813C27.5512 6.46264 28.3744 7.53847 29.4942 7.75212C30.043 7.85894 30.5844 7.78263 31.1629 7.81315Z" fill="#EDF2FC"/>
</svg>
