<svg width="31" height="41" viewBox="0 0 31 41" fill="none" xmlns="http://www.w3.org/2000/svg">
<path d="M19.4362 11.8034H17.0755V9.47747C17.0755 8.62016 16.3701 7.92508 15.5 7.92508C14.6299 7.92508 13.9245 8.62016 13.9245 9.47747V11.8035H11.5638C10.6937 11.8035 9.98822 12.4986 9.98822 13.3559C9.98822 14.2132 10.6937 14.9083 11.5638 14.9083H13.9245V17.2342C13.9245 18.0915 14.6299 18.7866 15.5 18.7866C16.3701 18.7866 17.0755 18.0915 17.0755 17.2342V14.9083H19.4362C20.3063 14.9083 21.0118 14.2132 21.0118 13.3559C21.0118 12.4985 20.3065 11.8034 19.4362 11.8034Z" fill="#EDF2FC"/>
<path d="M30.9993 1.55239C30.9993 0.695077 30.2939 0 29.4238 0H1.57635C0.706252 0 0.00081381 0.695077 0.00081381 1.55239C0.00081381 3.12464 0.000488281 33.2626 0.000488281 34.8472C0.000488281 35.7045 0.705927 36.3996 1.57602 36.3996H6.13212V39.4462C6.13212 40.8264 7.83143 41.5193 8.82148 40.5441L11.5641 37.8426L14.3058 40.5438C15.2899 41.5139 16.9954 40.8373 16.9954 39.4462V36.3996H29.4249C30.295 36.3996 31.0005 35.7045 31.0005 34.8472C31.0006 33.8834 30.9993 18.7724 30.9993 1.55239ZM3.15196 3.10487H27.8483V23.6069H3.15196V3.10487ZM13.8444 35.6982L12.6785 34.5495C12.0634 33.9432 11.0659 33.9432 10.4506 34.5493L9.28327 35.6989C9.28327 33.8944 9.28327 33.3591 9.28327 31.5562H13.8444C13.8444 33.3601 13.8444 33.8958 13.8444 35.6982ZM27.8495 33.2948H16.9955V31.556H24.7157C25.5858 31.556 26.2913 30.861 26.2913 30.0036C26.2913 29.1463 25.5858 28.4512 24.7157 28.4512H6.2854C5.4153 28.4512 4.70986 29.1463 4.70986 30.0036C4.70986 30.8101 5.33403 31.4724 6.1322 31.5484V33.2949H3.15164V26.7119H27.8495V33.2948Z" fill="#EDF2FC"/>
</svg>
