<svg width="48" height="48" viewBox="0 0 48 48" fill="none" xmlns="http://www.w3.org/2000/svg">
<path d="M48.0005 37.6875C48.0005 40.7875 48.0005 43.875 48.0005 46.9625C47.763 47.45 47.413 47.825 46.8755 47.9875C31.6255 47.9875 16.3755 47.9875 1.12549 47.9875C0.562988 47.8 0.175488 47.4375 0.000488281 46.8625C0.000488281 43.5125 0.000488281 40.175 0.000488281 36.8375C0.950488 34.95 1.91299 33.075 2.83799 31.175C3.17549 30.475 3.68799 30.175 4.47549 30.175C8.15049 30.1875 11.813 30.1875 15.488 30.1875C15.688 30.1875 15.8755 30.2 16.063 30.0625C18.063 28.6625 20.288 28.05 22.7255 28.125C23.1755 28.1375 23.6255 28.125 24.088 28.125C24.088 27.325 24.0755 26.575 24.088 25.8375C24.088 25.625 23.9755 25.5375 23.838 25.425C21.1755 23.375 19.863 20.6625 19.863 17.3C19.863 15.9 19.863 14.4875 19.863 13.0625C19.113 12.7375 18.863 12.1375 18.9255 11.35C18.938 11.1625 18.9255 10.975 18.9255 10.7875C18.9505 5.6875 22.413 1.3875 27.388 0.25C27.7505 0.1625 28.1505 0.2 28.488 0C29.263 0 30.0505 0 30.838 0C30.8505 0.075 30.913 0.0875015 30.9755 0.0875015C35.188 0.675002 38.088 2.9625 39.7505 6.85C40.2255 7.95 40.4005 9.1125 40.5005 10.2625C40.5505 10.2875 40.5755 10.3 40.588 10.3C42.463 10.3 44.338 10.325 46.213 10.2875C47.1005 10.275 47.713 10.5625 48.0005 11.425C48.0005 11.65 48.0005 11.8625 48.0005 12.075C47.6255 12.8875 46.988 13.1375 46.113 13.125C44.063 13.0875 42.0255 13.1125 39.9755 13.1125C39.838 13.1125 39.7005 13.0625 39.563 13.175C39.563 14.5375 39.563 15.9125 39.563 17.2875C39.5505 20.6375 38.238 23.3625 35.588 25.4125C35.488 25.4875 35.3505 25.55 35.3505 25.725C35.3505 26.5125 35.3505 27.3 35.3505 28.1125C36.063 28.1125 36.713 28.1 37.3755 28.1125C42.338 28.175 46.6505 31.675 47.7505 36.525C47.8255 36.925 47.8005 37.3375 48.0005 37.6875ZM35.2755 30.975C34.588 34.125 32.1005 35.5375 29.963 35.625C28.7255 35.675 27.588 35.35 26.563 34.65C25.2505 33.75 24.4755 32.5 24.163 30.95C22.438 30.9375 20.7255 30.8125 19.113 31.6C19.188 31.7375 19.238 31.8625 19.3005 31.9875C20.0255 33.45 20.7505 34.9125 21.488 36.375C21.6755 36.7375 21.7505 37.1 21.7505 37.5C21.738 39.9 21.7505 42.3125 21.7505 44.7125C21.7505 44.8625 21.713 45.025 21.788 45.1625C29.5755 45.1625 37.363 45.1625 45.188 45.1625C45.188 43.0125 45.2255 40.8875 45.1755 38.775C45.113 36.0875 43.9505 33.95 41.763 32.375C39.813 30.95 37.5755 30.8125 35.2755 30.975ZM22.688 13.1375C22.688 14.75 22.6755 16.3125 22.688 17.875C22.688 18.2 22.738 18.525 22.8005 18.85C23.5005 22.3875 26.763 24.8625 30.288 24.5375C33.9505 24.2 36.7255 21.1875 36.738 17.5C36.7505 16.1625 36.738 14.8125 36.738 13.475C36.738 13.3625 36.788 13.225 36.688 13.1375C32.038 13.1375 27.3755 13.1375 22.688 13.1375ZM2.82549 45.1625C8.22548 45.1625 13.563 45.1625 18.913 45.1625C18.913 42.975 18.913 40.8125 18.913 38.65C13.538 38.65 8.18799 38.65 2.82549 38.65C2.82549 40.825 2.82549 42.975 2.82549 45.1625ZM37.6505 10.2875C37.513 6.1125 33.8005 2.7 29.4755 2.825C24.8755 2.9625 21.888 6.7625 21.8005 10.2875C27.088 10.2875 32.363 10.2875 37.6505 10.2875ZM18.063 35.8C17.638 34.9625 17.238 34.1875 16.8755 33.4C16.738 33.0875 16.563 32.9875 16.213 32.9875C12.663 33 9.12549 33 5.57549 32.9875C5.18799 32.9875 5.00049 33.1125 4.85049 33.45C4.55049 34.1375 4.18799 34.7875 3.86299 35.4625C3.81299 35.5625 3.68799 35.6625 3.78799 35.8C8.51299 35.8 13.2505 35.8 18.063 35.8ZM26.913 26.9625C26.913 28 26.9005 29 26.913 30C26.9255 31.5 28.063 32.7125 29.513 32.8125C31.0005 32.9125 32.363 31.8625 32.5005 30.375C32.6005 29.2625 32.5255 28.1375 32.5255 26.9875C30.638 27.5 28.788 27.525 26.913 26.9625Z" fill="#EDF2FC"/>
<path d="M38.438 37.9625C39.0505 37.9625 39.6505 37.95 40.263 37.9625C41.088 37.975 41.713 38.575 41.7255 39.35C41.738 40.15 41.1005 40.7625 40.2505 40.775C39.0505 40.775 37.8505 40.775 36.6505 40.775C35.788 40.775 35.163 40.1625 35.1755 39.3625C35.1755 38.5625 35.8005 37.975 36.6755 37.9625C37.2505 37.9625 37.838 37.9625 38.438 37.9625Z" fill="#EDF2FC"/>
</svg>
