<svg width="38" height="38" viewBox="0 0 38 38" fill="none" xmlns="http://www.w3.org/2000/svg">
<path d="M28.6489 17.0703C29.4687 17.0703 30.1333 16.4057 30.1333 15.5859C30.1333 14.7661 29.4687 14.1016 28.6489 14.1016C27.8291 14.1016 27.1646 14.7661 27.1646 15.5859C27.1646 16.4057 27.8291 17.0703 28.6489 17.0703Z" fill="#EDF2FC"/>
<path d="M32.063 2.96875H30.1333V1.48438C30.1333 0.664555 29.4687 0 28.6489 0C27.8291 0 27.1646 0.664555 27.1646 1.48438V2.96875H20.4106V1.48438C20.4106 0.664555 19.7461 0 18.9263 0C18.1064 0 17.4419 0.664555 17.4419 1.48438V2.96875H10.7622V1.48438C10.7622 0.664555 10.0977 0 9.27783 0C8.45801 0 7.79346 0.664555 7.79346 1.48438V2.96875H5.93799C2.66405 2.96875 0.000488281 5.63231 0.000488281 8.90625V32.0625C0.000488281 35.3364 2.66405 38 5.93799 38H17.2935C18.1133 38 18.7778 37.3354 18.7778 36.5156C18.7778 35.6958 18.1133 35.0312 17.2935 35.0312H5.93799C4.30102 35.0312 2.96924 33.6995 2.96924 32.0625V8.90625C2.96924 7.26928 4.30102 5.9375 5.93799 5.9375H7.79346V7.42188C7.79346 8.2417 8.45801 8.90625 9.27783 8.90625C10.0977 8.90625 10.7622 8.2417 10.7622 7.42188V5.9375H17.4419V7.42188C17.4419 8.2417 18.1064 8.90625 18.9263 8.90625C19.7461 8.90625 20.4106 8.2417 20.4106 7.42188V5.9375H27.1646V7.42188C27.1646 8.2417 27.8291 8.90625 28.6489 8.90625C29.4687 8.90625 30.1333 8.2417 30.1333 7.42188V5.9375H32.063C33.7 5.9375 35.0317 7.26928 35.0317 8.90625V17.3672C35.0317 18.187 35.6963 18.8516 36.5161 18.8516C37.3359 18.8516 38.0005 18.187 38.0005 17.3672V8.90625C38.0005 5.63231 35.3369 2.96875 32.063 2.96875Z" fill="#EDF2FC"/>
<path d="M29.02 20.0391C24.0681 20.0391 20.0396 24.0677 20.0396 29.0195C20.0396 33.9714 24.0681 38 29.02 38C33.9719 38 38.0005 33.9714 38.0005 29.0195C38.0005 24.0677 33.9719 20.0391 29.02 20.0391ZM29.02 35.0312C25.7052 35.0312 23.0083 32.3344 23.0083 29.0195C23.0083 25.7046 25.7052 23.0078 29.02 23.0078C32.3349 23.0078 35.0317 25.7046 35.0317 29.0195C35.0317 32.3344 32.3349 35.0312 29.02 35.0312Z" fill="#EDF2FC"/>
<path d="M31.1724 27.5352H30.5044V25.9766C30.5044 25.1567 29.8398 24.4922 29.02 24.4922C28.2002 24.4922 27.5356 25.1567 27.5356 25.9766V29.0195C27.5356 29.8394 28.2002 30.5039 29.02 30.5039H31.1724C31.9922 30.5039 32.6567 29.8394 32.6567 29.0195C32.6567 28.1997 31.9922 27.5352 31.1724 27.5352Z" fill="#EDF2FC"/>
<path d="M22.1919 17.0703C23.0117 17.0703 23.6763 16.4057 23.6763 15.5859C23.6763 14.7661 23.0117 14.1016 22.1919 14.1016C21.3721 14.1016 20.7075 14.7661 20.7075 15.5859C20.7075 16.4057 21.3721 17.0703 22.1919 17.0703Z" fill="#EDF2FC"/>
<path d="M15.7349 23.5273C16.5547 23.5273 17.2192 22.8628 17.2192 22.043C17.2192 21.2232 16.5547 20.5586 15.7349 20.5586C14.9151 20.5586 14.2505 21.2232 14.2505 22.043C14.2505 22.8628 14.9151 23.5273 15.7349 23.5273Z" fill="#EDF2FC"/>
<path d="M9.27783 17.0703C10.0976 17.0703 10.7622 16.4057 10.7622 15.5859C10.7622 14.7661 10.0976 14.1016 9.27783 14.1016C8.45803 14.1016 7.79346 14.7661 7.79346 15.5859C7.79346 16.4057 8.45803 17.0703 9.27783 17.0703Z" fill="#EDF2FC"/>
<path d="M9.27783 23.5273C10.0976 23.5273 10.7622 22.8628 10.7622 22.043C10.7622 21.2232 10.0976 20.5586 9.27783 20.5586C8.45803 20.5586 7.79346 21.2232 7.79346 22.043C7.79346 22.8628 8.45803 23.5273 9.27783 23.5273Z" fill="#EDF2FC"/>
<path d="M9.27783 29.9844C10.0976 29.9844 10.7622 29.3198 10.7622 28.5C10.7622 27.6802 10.0976 27.0156 9.27783 27.0156C8.45803 27.0156 7.79346 27.6802 7.79346 28.5C7.79346 29.3198 8.45803 29.9844 9.27783 29.9844Z" fill="#EDF2FC"/>
<path d="M15.7349 29.9844C16.5547 29.9844 17.2192 29.3198 17.2192 28.5C17.2192 27.6802 16.5547 27.0156 15.7349 27.0156C14.9151 27.0156 14.2505 27.6802 14.2505 28.5C14.2505 29.3198 14.9151 29.9844 15.7349 29.9844Z" fill="#EDF2FC"/>
<path d="M15.7349 17.0703C16.5547 17.0703 17.2192 16.4057 17.2192 15.5859C17.2192 14.7661 16.5547 14.1016 15.7349 14.1016C14.9151 14.1016 14.2505 14.7661 14.2505 15.5859C14.2505 16.4057 14.9151 17.0703 15.7349 17.0703Z" fill="#EDF2FC"/>
</svg>
