<svg width="37" height="34" viewBox="0 0 37 34" fill="none" xmlns="http://www.w3.org/2000/svg">
<path d="M2.89111 21.0087V8.9083C2.89111 3.99626 6.78132 0 11.563 0H25.438C30.2197 0 34.1099 3.99626 34.1099 8.9083V21.0087C34.1099 21.8287 33.4628 22.4934 32.6646 22.4934C31.8663 22.4934 31.2192 21.8287 31.2192 21.0087V8.9083C31.2192 5.63361 28.6258 2.96943 25.438 2.96943H11.563C8.37521 2.96943 5.78174 5.63361 5.78174 8.9083V21.0087C5.78174 21.8287 5.13467 22.4934 4.33643 22.4934C3.53818 22.4934 2.89111 21.8287 2.89111 21.0087ZM37.0005 29.5459C37.0005 32.0019 35.0554 34 32.6646 34H4.33643C1.94559 34 0.000488281 32.0019 0.000488281 29.5459C0.000488281 27.0898 1.94559 25.0917 4.33643 25.0917H32.6646C35.0554 25.0917 37.0005 27.0898 37.0005 29.5459ZM34.1099 29.5459C34.1099 28.7272 33.4615 28.0611 32.6646 28.0611H4.33643C3.53948 28.0611 2.89111 28.7272 2.89111 29.5459C2.89111 30.3645 3.53948 31.0306 4.33643 31.0306H32.6646C33.4615 31.0306 34.1099 30.3645 34.1099 29.5459ZM12.4073 12.6201C11.5172 12.6201 10.6808 12.262 10.0523 11.612L9.09411 10.6246C8.53058 10.044 8.53195 9.10383 9.09729 8.52494C9.66233 7.94605 10.5774 7.94739 11.1412 8.52813L12.1014 9.51748C12.2081 9.62786 12.3265 9.65065 12.4073 9.65065C12.4881 9.65065 12.6066 9.62786 12.7114 9.51948L14.725 7.42069C15.2852 6.83675 16.2003 6.82984 16.7689 7.40539C17.3374 7.98094 17.344 8.92107 16.7837 9.50508L14.7662 11.608C14.1338 12.262 13.2975 12.6201 12.4073 12.6201ZM28.3286 10.0264C28.3286 9.20635 27.6815 8.54165 26.8833 8.54165H20.813C20.0147 8.54165 19.3677 9.20635 19.3677 10.0264C19.3677 10.8464 20.0147 11.5111 20.813 11.5111H26.8833C27.6815 11.5111 28.3286 10.8464 28.3286 10.0264ZM14.7662 19.0315L16.7837 16.9287C17.3441 16.3446 17.3374 15.4046 16.7689 14.829C16.2003 14.2534 15.2852 14.2603 14.725 14.8443L12.7114 16.9431C12.6066 17.0514 12.4882 17.0742 12.4073 17.0742C12.3265 17.0742 12.2081 17.0514 12.1014 16.9411L11.1413 15.9517C10.5775 15.3709 9.6624 15.3696 9.09736 15.9485C8.53202 16.5274 8.53065 17.4675 9.09418 18.0482L10.0524 19.0355C10.6809 19.6856 11.5173 20.0437 12.4074 20.0437C13.2975 20.0437 14.1338 19.6856 14.7662 19.0315ZM28.3286 17.4499C28.3286 16.6299 27.6815 15.9652 26.8833 15.9652H20.813C20.0147 15.9652 19.3677 16.6299 19.3677 17.4499C19.3677 18.27 20.0147 18.9347 20.813 18.9347H26.8833C27.6815 18.9347 28.3286 18.27 28.3286 17.4499Z" fill="#EDF2FC"/>
</svg>
