<svg width="40" height="40" viewBox="0 0 40 40" fill="none" xmlns="http://www.w3.org/2000/svg">
<path d="M30.7007 15.5935C32.6507 13.9761 33.8949 11.5359 33.8949 8.81038C33.8949 3.95238 29.9425 0 25.0845 0C20.2264 0 16.2742 3.95238 16.2742 8.81038C16.2742 9.44539 16.3423 10.0647 16.4706 10.662C15.9688 10.5729 15.4528 10.5263 14.9259 10.5263C10.0678 10.5263 6.11557 14.4786 6.11557 19.3366C6.11557 22.0619 7.35955 24.5019 9.30924 26.1193C3.8551 28.343 0.000488281 33.7028 0.000488281 39.9468H3.12619C3.12619 33.4403 8.41947 28.1471 14.9258 28.1471C19.7838 28.1471 23.7361 24.1947 23.7361 19.3367C23.7361 18.7017 23.668 18.0823 23.5397 17.4851C24.0414 17.5741 24.5575 17.6208 25.0844 17.6208C28.9186 17.6208 32.3302 19.4602 34.4867 22.3017L36.6048 19.9434C35.0393 18.0436 33.0137 16.5368 30.7007 15.5935ZM14.9259 25.0213C11.7914 25.0213 9.24127 22.4712 9.24127 19.3366C9.24127 16.2021 11.7914 13.652 14.9259 13.652C18.0603 13.652 20.6105 16.2022 20.6105 19.3366C20.6105 22.4711 18.0603 25.0213 14.9259 25.0213ZM25.0845 14.495C21.95 14.495 19.3999 11.9449 19.3999 8.8103C19.3999 5.67575 21.95 3.12573 25.0845 3.12573C28.2189 3.12573 30.7691 5.67583 30.7691 8.81038C30.7691 11.945 28.219 14.495 25.0845 14.495Z" fill="#EDF2FC"/>
<path d="M37.6749 23.43L26.8185 35.5175L20.692 29.6855L18.537 31.9496L26.9942 40L40.0005 25.5186L37.6749 23.43Z" fill="#EDF2FC"/>
</svg>
