<svg width="37" height="48" viewBox="0 0 37 48" fill="none" xmlns="http://www.w3.org/2000/svg">
<path d="M26.8504 27.214L24.7531 24.2507C27.0137 22.4446 28.4621 19.6834 28.4621 16.5937V10.7812C28.4621 10.7584 28.4559 8.43139 28.4253 8.09718C28.1846 5.46141 26.6981 3.15462 24.347 1.76844C21.8954 0.323103 18.8728 0.120417 16.2612 1.22647C14.0667 2.15581 11.5495 2.1559 9.35515 1.22647L6.72777 0.113761C6.28813 -0.072519 5.78313 -0.0279881 5.38372 0.232354C4.9844 0.492508 4.74409 0.933599 4.74409 1.40628V5.15626C4.74409 7.84865 6.28424 10.1913 8.53897 11.3722V16.5937C8.53897 19.6834 9.98738 22.4446 12.248 24.2507L10.1507 27.214C4.48803 27.601 0.000488281 32.2764 0.000488281 37.9685V46.5935C0.000488281 47.3701 0.637649 47.9997 1.42357 47.9997H14.2271C14.229 47.9997 14.2309 48 14.2328 48C14.2349 48 14.237 47.9997 14.2392 47.9997H22.7618C22.7639 47.9997 22.766 48 22.7682 48C22.7701 48 22.772 47.9997 22.7739 47.9997H35.5774C36.3633 47.9997 37.0005 47.3701 37.0005 46.5935V37.9685C37.0006 32.2764 32.513 27.601 26.8504 27.214ZM10.3538 9.10329C8.74067 8.50039 7.59025 6.95896 7.59025 5.15635V3.53899L8.23396 3.81161C11.1411 5.04273 14.4753 5.04273 17.3825 3.81161C19.1589 3.05937 21.2173 3.1983 22.8887 4.1838C24.4445 5.10104 25.4285 6.61472 25.5897 8.33839C25.5956 8.44742 25.601 8.80855 25.6054 9.22479C24.551 9.00176 23.5546 8.53536 22.7098 7.85868L21.484 6.87656C20.9614 6.45797 20.2139 6.45797 19.6914 6.87656L18.4655 7.85868C17.2451 8.83658 15.7076 9.37507 14.1363 9.37507H11.8594C11.3933 9.37507 10.9448 9.29979 10.5246 9.16273C10.4695 9.1392 10.4123 9.11979 10.3538 9.10329ZM11.3851 16.5938V12.1702C11.5421 12.1805 11.6999 12.1876 11.8595 12.1876H14.1364C16.3582 12.1876 18.5323 11.426 20.2581 10.0432L20.5877 9.77923L20.9173 10.0432C22.2718 11.1285 23.9028 11.829 25.6159 12.0811V16.5938C25.6159 20.4708 22.424 23.625 18.5005 23.625C14.5771 23.625 11.3851 20.4708 11.3851 16.5938ZM18.5005 31.2793L15.6544 27.2169V26.0273C16.5566 26.2936 17.5119 26.4374 18.5005 26.4374C19.4892 26.4374 20.4445 26.2936 21.3467 26.0273V27.2169L18.5005 31.2793ZM19.9236 35.1561V37.9686H17.0775V35.1561H19.9236ZM14.2313 39.3313L13.0617 45.1872H2.84665V37.9685C2.84665 34.0546 5.71786 30.7931 9.48769 30.1266V33.7498C9.48769 34.5264 10.1249 35.1561 10.9108 35.1561H14.2313V39.3313ZM12.3339 32.3437V29.0367L12.9216 28.2062C12.9592 28.2938 13.0059 28.3777 13.0612 28.4566L15.7844 32.3437H12.3339ZM15.9626 45.1873L16.8426 40.7811H20.1582L21.0383 45.1873H15.9626ZM21.2166 32.3437L23.9398 28.4566C23.9951 28.3777 24.0418 28.2938 24.0795 28.2062L24.6672 29.0367V32.3437H21.2166ZM34.1544 45.1873H23.9394L22.7698 39.3314V35.1561H26.0903C26.8762 35.1561 27.5134 34.5265 27.5134 33.7499V30.1267C31.2832 30.7931 34.1544 34.0547 34.1544 37.9686V45.1873Z" fill="#EDF2FC"/>
<path d="M29.8852 37.4999H27.039C26.2531 37.4999 25.6159 38.1295 25.6159 38.9061C25.6159 39.6828 26.2531 40.3124 27.039 40.3124H29.8852C30.6711 40.3124 31.3083 39.6828 31.3083 38.9061C31.3083 38.1295 30.6711 37.4999 29.8852 37.4999Z" fill="#EDF2FC"/>
</svg>
