<svg width="51" height="45" viewBox="0 0 51 45" fill="none" xmlns="http://www.w3.org/2000/svg">
<path d="M49.5063 9.00367H43.4501C34.4748 -3.00402 16.5223 -2.99842 7.55138 9.00367H1.49463C0.669465 9.00367 0.000488281 9.67509 0.000488281 10.5033V34.4967C0.000488281 35.3248 0.669465 35.9963 1.49463 35.9963H7.55038C16.5276 48.0063 34.4812 47.9962 43.4507 35.9963H49.5063C50.3315 35.9963 51.0005 35.3248 51.0005 34.4967V10.5033C51.0005 9.67499 50.3315 9.00367 49.5063 9.00367ZM39.0802 32.9971H17.1545L21.3872 28.7489C26.302 32.022 32.9965 28.4985 32.9965 22.4873C32.9965 20.9578 32.5375 19.5343 31.7521 18.3463L38.0725 12.0028H39.0802C39.7409 16.618 43.4036 20.2727 48.0122 20.9033V24.0967C43.4036 24.7272 39.7409 28.3818 39.0802 32.9971ZM11.946 32.9971C11.2841 28.3733 7.60925 24.7137 2.98877 24.093V20.9067C7.60925 20.2861 11.2841 16.6264 11.946 12.0027H33.8465L29.6391 16.2255C24.7242 12.9525 18.0298 16.4759 18.0298 22.4873C18.0298 24.0167 18.4888 25.4403 19.2742 26.6282L12.9285 32.9971H11.946ZM23.5722 26.5559L29.567 20.5392C31.3956 24.3569 27.3813 28.3935 23.5722 26.5559ZM27.454 18.4185L21.4592 24.4352C19.6307 20.6176 23.645 16.5809 27.454 18.4185ZM48.0122 17.8636C45.0544 17.2899 42.7124 14.961 42.1116 12.0027H48.0122V17.8636ZM38.1464 7.68724L36.8347 9.00367H11.4645C18.5906 1.54732 30.2788 0.928795 38.1464 7.68724ZM8.91463 12.0028C8.31219 14.9694 5.95852 17.3029 2.98877 17.8682V12.0028H8.91463ZM2.98877 27.1317C5.95852 27.697 8.31219 30.0305 8.91463 32.9971H2.98877V27.1317ZM12.8547 37.3126L14.1662 35.9963H39.5371C32.422 43.4393 20.7372 44.0827 12.8547 37.3126ZM42.1116 32.9971C42.7124 30.0388 45.0544 27.7099 48.0122 27.1362V32.9971H42.1116Z" fill="#EDF2FC"/>
<path d="M13.5474 21.0004H10.5591C9.73392 21.0004 9.06494 21.6718 9.06494 22.5C9.06494 23.3281 9.73392 23.9995 10.5591 23.9995H13.5474C14.3725 23.9995 15.0415 23.3281 15.0415 22.5C15.0415 21.6718 14.3725 21.0004 13.5474 21.0004Z" fill="#EDF2FC"/>
<path d="M40.4419 21.0004H37.4536C36.6284 21.0004 35.9595 21.6718 35.9595 22.5C35.9595 23.3281 36.6284 23.9995 37.4536 23.9995H40.4419C41.2671 23.9995 41.936 23.3281 41.936 22.5C41.936 21.6718 41.2671 21.0004 40.4419 21.0004Z" fill="#EDF2FC"/>
</svg>
