<svg width="46" height="46" viewBox="0 0 46 46" fill="none" xmlns="http://www.w3.org/2000/svg">
<path d="M45.3576 5.58945C45.2629 5.53142 42.9956 4.15173 39.1019 2.77258C35.5309 1.50771 29.8388 0 23.0004 0C16.162 0 10.4698 1.50771 6.89893 2.77258C3.00521 4.15173 0.737923 5.53142 0.643228 5.58945L0.000488281 5.98386V20.128C0.000488281 26.4846 2.318 32.6091 6.52617 37.3735C10.7343 42.1378 16.5258 45.194 22.834 45.9793L23.0005 46L23.167 45.9793C29.4751 45.1941 35.2666 42.1378 39.4748 37.3735C43.683 32.6091 46.0005 26.4846 46.0005 20.128V5.98386L45.3576 5.58945ZM43.305 20.128C43.305 25.8269 41.2272 31.3178 37.4545 35.5892C33.7188 39.8187 28.5912 42.5467 23.0004 43.2834C17.4096 42.5468 12.282 39.8188 8.5463 35.5892C4.77351 31.3178 2.69579 25.8269 2.69579 20.128V7.52705C3.59072 7.04883 5.3857 6.16255 7.87868 5.28489C11.2345 4.10349 16.5819 2.69523 23.0004 2.69523C29.4187 2.69523 34.7663 4.10349 38.1221 5.28489C40.6155 6.16273 42.4107 7.0491 43.305 7.52696V20.128Z" fill="#EDF2FC"/>
<path d="M6.2048 8.83864L5.391 9.18974V20.1279C5.391 25.1692 7.22902 30.0265 10.5664 33.8049C13.7298 37.3865 18.0701 39.7744 22.7874 40.5288L23.0002 40.5627L23.2131 40.5288C27.9306 39.7744 32.2707 37.3864 35.4342 33.8049C38.7715 30.0264 40.6095 25.1691 40.6095 20.1279V9.18974L39.7957 8.83864C36.8109 7.55086 30.6595 5.39046 23.0004 5.39046C15.3412 5.39046 9.18994 7.55086 6.2048 8.83864ZM12.5866 32.0207C11.9133 31.2584 11.3111 30.4449 10.7817 29.5912V26.4981C10.7817 23.8726 12.9177 21.7366 15.5434 21.7366C16.8676 21.7366 18.102 22.2766 18.992 23.2141C18.5161 23.9551 18.2387 24.8352 18.2387 25.7794C18.2387 26.9314 18.6501 27.989 19.3334 28.8135C17.2342 30.0045 15.7676 32.1831 15.5687 34.7139C14.4828 33.9342 13.4804 33.0326 12.5866 32.0207ZM13.477 16.975C13.477 15.8356 14.4039 14.9087 15.5434 14.9087C16.6829 14.9087 17.6098 15.8356 17.6098 16.975C17.6098 18.1144 16.6829 19.0413 15.5434 19.0413C14.4039 19.0413 13.477 18.1144 13.477 16.975ZM25.0668 25.7794C25.0668 26.9188 24.1399 27.8458 23.0004 27.8458C21.8609 27.8458 20.934 26.9188 20.934 25.7794C20.934 24.64 21.8609 23.7131 23.0004 23.7131C24.1399 23.7131 25.0668 24.64 25.0668 25.7794ZM23.0004 37.8321C21.3417 37.5462 19.7393 37.0272 18.2387 36.3018V35.3026C18.2387 32.6771 20.3747 30.5411 23.0004 30.5411C25.626 30.5411 27.762 32.6771 27.762 35.3026V36.3019C26.2615 37.0272 24.659 37.5462 23.0004 37.8321ZM33.4141 32.0208C32.5204 33.0328 31.5179 33.9344 30.4319 34.714C30.2332 32.1832 28.7665 30.0045 26.6673 28.8135C27.3507 27.989 27.7621 26.9314 27.7621 25.7794C27.7621 24.8352 27.4847 23.9551 27.0088 23.2141C27.8987 22.2767 29.1332 21.7366 30.4574 21.7366C33.0831 21.7366 35.2191 23.8725 35.2191 26.4981V29.5912C34.6897 30.4449 34.0875 31.2584 33.4141 32.0208ZM28.391 16.975C28.391 15.8356 29.3179 14.9087 30.4574 14.9087C31.5969 14.9087 32.5238 15.8356 32.5238 16.975C32.5238 18.1144 31.5969 19.0413 30.4574 19.0413C29.3179 19.0413 28.391 18.1144 28.391 16.975ZM37.9144 20.128C37.9144 21.4457 37.7689 22.7486 37.4881 24.0163C36.8843 22.3112 35.6773 20.8901 34.1244 20.0091C34.8077 19.1846 35.2191 18.127 35.2191 16.975C35.2191 14.3495 33.0831 12.2134 30.4574 12.2134C27.8317 12.2134 25.6957 14.3495 25.6957 16.975C25.6957 18.1242 26.1049 19.1796 26.7854 20.0033C26.1137 20.3831 25.5012 20.8683 24.9708 21.4464C24.3699 21.172 23.703 21.0178 23.0004 21.0178C22.2978 21.0178 21.6309 21.172 21.03 21.4464C20.4996 20.8683 19.8871 20.3831 19.2154 20.0033C19.8958 19.1797 20.3051 18.1242 20.3051 16.975C20.3051 14.3495 18.1691 12.2134 15.5434 12.2134C12.9177 12.2134 10.7817 14.3495 10.7817 16.975C10.7817 18.127 11.1931 19.1846 11.8764 20.0091C10.3235 20.8901 9.11636 22.3112 8.5127 24.0164C8.23185 22.7487 8.08639 21.4458 8.08639 20.128V10.9748C11.1012 9.76463 16.4631 8.08568 23.0004 8.08568C29.5376 8.08568 34.8995 9.76463 37.9144 10.9748V20.128Z" fill="#EDF2FC"/>
</svg>
