<svg width="47" height="46" viewBox="0 0 47 46" fill="none" xmlns="http://www.w3.org/2000/svg">
<path d="M14.2624 13.3919C14.8318 13.9085 15.7004 13.9086 16.27 13.3919L20.7171 9.3581C21.3283 8.80367 21.3744 7.85878 20.82 7.24758C20.2656 6.63627 19.3207 6.59036 18.7094 7.14468L16.7604 8.91265V1.49414C16.7604 0.668977 16.0914 0 15.2662 0C14.4411 0 13.7721 0.668977 13.7721 1.49414V8.91265L11.8229 7.14468C11.2118 6.59036 10.2668 6.63627 9.7124 7.24758C9.15798 7.85888 9.20399 8.80367 9.8153 9.3581L14.2624 13.3919Z" fill="#EDF2FC"/>
<path d="M30.7311 13.3919C31.3006 13.9085 32.1692 13.9086 32.7388 13.3919L37.186 9.3581C37.7972 8.80367 37.8433 7.85878 37.2889 7.24758C36.7344 6.63627 35.7894 6.59026 35.1783 7.14468L33.2292 8.91265V1.49414C33.2292 0.668977 32.5602 0 31.735 0C30.9098 0 30.2409 0.668977 30.2409 1.49414V8.91265L28.2917 7.14478C27.6804 6.59046 26.7356 6.63637 26.1812 7.24768C25.6267 7.85888 25.6728 8.80377 26.2841 9.3582L30.7311 13.3919Z" fill="#EDF2FC"/>
<path d="M46.4898 10.9201C45.8686 10.377 44.9246 10.4404 44.3814 11.0615L37.7641 18.6301H9.237L2.61953 11.0615C2.07636 10.4402 1.13246 10.3769 0.511192 10.9201C-0.110074 11.4633 -0.173326 12.4072 0.369845 13.0285L7.06392 20.6846V42.5137C7.06392 44.4361 8.62779 46 10.5503 46H36.4511C38.3736 46 39.9374 44.4361 39.9374 42.5137V20.6843L46.6312 13.0284C47.1743 12.4072 47.111 11.4632 46.4898 10.9201ZM36.9491 42.5137C36.9491 42.7886 36.7249 43.0117 36.451 43.0117H10.5502C10.2762 43.0117 10.0521 42.7886 10.0521 42.5137V21.6184H36.9491V42.5137Z" fill="#EDF2FC"/>
<path d="M24.9869 33.3535H31.6608C32.4859 33.3535 33.1549 32.6845 33.1549 31.8594C33.1549 31.0342 32.4859 30.3652 31.6608 30.3652H24.9869C24.1618 30.3652 23.4928 31.0342 23.4928 31.8594C23.4928 32.6845 24.1618 33.3535 24.9869 33.3535Z" fill="#EDF2FC"/>
<path d="M24.9869 39.8281H31.6608C32.4859 39.8281 33.1549 39.1591 33.1549 38.334C33.1549 37.5088 32.4859 36.8398 31.6608 36.8398H24.9869C24.1618 36.8398 23.4928 37.5088 23.4928 38.334C23.4928 39.1591 24.1618 39.8281 24.9869 39.8281Z" fill="#EDF2FC"/>
</svg>
