<svg width="40" height="40" fill="none" xmlns="http://www.w3.org/2000/svg"><circle cx="20" cy="20" r="20" fill="#365EDC"/><path d="M19.94 18.594a.785.785 0 00-.789-.782h-4.215a.785.785 0 00-.788.782c0 .431.353.781.788.781h4.215c.435 0 .788-.35.788-.781zm-5.004 2.344a.785.785 0 00-.788.78c0 .432.353.782.788.782h1.694c.435 0 .788-.35.788-.781a.785.785 0 00-.788-.782h-1.694z" fill="#fff"/><path d="M18.442 28.438h-4.29a1.57 1.57 0 01-1.576-1.563v-13.75a1.57 1.57 0 011.576-1.563h9.688a1.57 1.57 0 011.575 1.563V17.5c0 .431.353.781.788.781.436 0 .788-.35.788-.781v-4.375c0-1.723-1.414-3.125-3.151-3.125h-9.688c-1.738 0-3.151 1.402-3.151 3.125v13.75C11 28.598 12.414 30 14.152 30h4.29c.435 0 .788-.35.788-.781a.785.785 0 00-.788-.782z" fill="#fff"/><path d="M28.534 21.313l-3.867-1.714a.789.789 0 00-.394-.065.791.791 0 00-.394.065l-3.867 1.714a.78.78 0 00-.467.713V25c0 1.222.487 2.469 1.336 3.422C21.788 29.44 22.973 30 24.22 30h.106c1.247 0 2.432-.56 3.339-1.577C28.514 27.47 29 26.223 29 25v-2.975a.78.78 0 00-.466-.713zm-1.11 1.22V25c0 1.622-1.325 3.436-3.098 3.436h-.106c-1.774 0-3.099-1.814-3.099-3.436v-2.469l3.152-1.396 3.152 1.396zm-3.584-7.064a.785.785 0 00-.788-.781h-8.116a.785.785 0 00-.788.78c0 .432.353.782.788.782h8.116c.435 0 .788-.35.788-.781z" fill="#fff"/></svg>