<svg width="40" height="40" fill="none" xmlns="http://www.w3.org/2000/svg"><circle cx="20" cy="20" r="20" fill="#FFD600"/><path d="M28.396 23.128c-1.225 0-2.427-.192-3.566-.568-.559-.19-1.245-.016-1.586.334l-2.248 1.698c-2.608-1.393-4.215-2.999-5.588-5.587l1.648-2.19a1.617 1.617 0 00.397-1.638 11.373 11.373 0 01-.57-3.572c0-.885-.72-1.605-1.605-1.605h-3.673c-.885 0-1.604.72-1.604 1.605C10 21.748 18.252 30 28.395 30 29.28 30 30 29.28 30 28.395v-3.662c0-.885-.72-1.605-1.604-1.605z" fill="#fff"/></svg>