<?xml version="1.0" encoding="utf-8"?><svg viewBox="0 0 40 40" xmlns="http://www.w3.org/2000/svg" xmlns:xlink="http://www.w3.org/1999/xlink"><style>:root>svg{display:none}:root>svg:target{display:block}</style><svg viewBox="0 0 12 10" id="arrow-left" xmlns="http://www.w3.org/2000/svg"><path d="M.34 5.75l4.18 3.94c.43.413 1.12.413 1.55 0 .43-.414.43-1.078 0-1.492L3.763 6.06h7.135C11.508 6.06 12 5.586 12 5c0-.586-.493-1.06-1.103-1.06H3.772L6.08 1.802c.43-.414.43-1.078 0-1.492a1.124 1.124 0 00-1.55 0L.348 4.25A1.03 1.03 0 00.024 5c0 .276.1.543.314.75z"/></svg><svg viewBox="0 0 12 10" id="arrow-right" xmlns="http://www.w3.org/2000/svg"><path d="M11.662 4.25L7.482.31a1.124 1.124 0 00-1.551 0 1.023 1.023 0 000 1.492L8.238 3.94H1.103C.493 3.94 0 4.414 0 5c0 .586.493 1.06 1.103 1.06h7.126L5.922 8.198a1.023 1.023 0 000 1.492c.43.413 1.12.413 1.55 0l4.18-3.94a1.03 1.03 0 00.324-.75 1.02 1.02 0 00-.314-.75z"/></svg><svg viewBox="0 0 12 7" id="chevron" xmlns="http://www.w3.org/2000/svg"><path d="M2.343 0L.93 1.414 6 6.485l5.071-5.07L9.657 0 6 3.657 2.343 0z"/></svg><svg viewBox="0 0 40 40" id="offer" xmlns="http://www.w3.org/2000/svg"><circle cx="20" cy="20" r="20"/><path d="M19.94 18.594a.785.785 0 00-.789-.782h-4.215a.785.785 0 00-.788.782c0 .431.353.781.788.781h4.215c.435 0 .788-.35.788-.781zM14.936 20.938a.785.785 0 00-.788.78c0 .432.353.782.788.782h1.694c.435 0 .788-.35.788-.781a.785.785 0 00-.788-.782h-1.694z" fill="#fff"/><path d="M18.442 28.438h-4.29a1.57 1.57 0 01-1.576-1.563v-13.75a1.57 1.57 0 011.576-1.563h9.688c.869 0 1.575.701 1.575 1.563V17.5c0 .431.353.781.788.781.436 0 .788-.35.788-.781v-4.375c0-1.723-1.414-3.125-3.151-3.125h-9.688c-1.738 0-3.151 1.402-3.151 3.125v13.75C11 28.598 12.414 30 14.152 30h4.29c.435 0 .788-.35.788-.781a.785.785 0 00-.788-.782z" fill="#fff"/><path d="M28.534 21.313l-3.867-1.714a.789.789 0 00-.394-.065.791.791 0 00-.394.065l-3.867 1.714a.78.78 0 00-.467.713V25c0 1.222.487 2.469 1.336 3.422C21.788 29.44 22.973 30 24.22 30h.106c1.247 0 2.432-.56 3.339-1.577C28.514 27.47 29 26.223 29 25v-2.975a.78.78 0 00-.466-.713zm-1.11 1.22V25c0 1.622-1.325 3.436-3.098 3.436h-.106c-1.774 0-3.099-1.814-3.099-3.436v-2.469l3.152-1.396 3.152 1.396zM23.84 15.469a.785.785 0 00-.788-.781h-8.116a.785.785 0 00-.788.78c0 .432.353.782.788.782h8.116c.435 0 .788-.35.788-.781z" fill="#fff"/></svg><svg fill="none" viewBox="0 0 40 40" id="phone" xmlns="http://www.w3.org/2000/svg"><circle cx="20" cy="20" r="20" fill="#FFD600"/><path d="M28.396 23.128c-1.225 0-2.427-.192-3.566-.568-.559-.19-1.245-.016-1.586.334l-2.248 1.698c-2.608-1.393-4.215-2.999-5.588-5.587l1.648-2.19a1.617 1.617 0 00.397-1.638 11.373 11.373 0 01-.57-3.572c0-.885-.72-1.605-1.605-1.605h-3.673c-.885 0-1.604.72-1.604 1.605C10 21.748 18.252 30 28.395 30 29.28 30 30 29.28 30 28.395v-3.662c0-.885-.72-1.605-1.604-1.605z" fill="#fff"/></svg><svg viewBox="0 0 40 40" id="telegram" xmlns="http://www.w3.org/2000/svg"><circle cx="20" cy="20" r="20"/><path d="M26.723 13.438a1.146 1.146 0 00-.928-.438c-.206 0-.423.046-.647.135L9.911 19.246c-.808.324-.917.81-.91 1.072.007.261.142.74.967 1.016l.014.005 2.137.642 10.407-5.586a.515.515 0 01.71.242.575.575 0 01-.086.631l-5.786 6.46-.165.703 4.93 4.17.007.006c.315.257.659.393.995.393.657 0 1.18-.51 1.332-1.3l2.496-12.952c.1-.52.016-.985-.236-1.31z" fill="#fff"/><path d="M16.373 23.321a.561.561 0 01.128-.247l3.797-4.238-7.046 3.781 1.6 4.807a1.9 1.9 0 00.395.69l1.126-4.793zM16.229 28.559c.38-.004.754-.172 1.081-.489l1.17-1.132-1.56-1.32-.691 2.94z" fill="#fff"/></svg><svg viewBox="0 0 40 40" id="whatsapp" xmlns="http://www.w3.org/2000/svg"><circle cx="20" cy="20" r="20"/><path d="M25.049 22.115l-.009.069c-2.015-1.005-2.226-1.139-2.487-.748-.18.27-.706.883-.865 1.065-.16.178-.32.192-.592.069-.275-.138-1.158-.427-2.203-1.362-.814-.728-1.36-1.622-1.521-1.897-.27-.464.293-.53.804-1.498.092-.192.045-.344-.023-.48-.068-.138-.616-1.485-.845-2.022-.22-.536-.446-.468-.616-.468-.528-.046-.914-.038-1.254.315-1.48 1.627-1.106 3.304.16 5.088 2.488 3.256 3.813 3.855 6.237 4.688.654.208 1.251.178 1.723.11.526-.083 1.62-.66 1.848-1.307.234-.646.234-1.182.165-1.306-.068-.124-.247-.192-.522-.316z" fill="#fff"/><path d="M27.81 12.162c-7.048-6.814-18.712-1.872-18.717 7.74 0 1.921.503 3.795 1.462 5.45L9 31l5.808-1.514C22.054 33.4 30.997 28.202 31 19.908c0-2.912-1.136-5.652-3.203-7.71l.014-.036zm1.359 7.715c-.006 6.997-7.686 11.367-13.761 7.796l-.33-.197-3.438.894.922-3.341-.22-.344c-3.78-6.018.563-13.882 7.725-13.882 2.432 0 4.716.948 6.435 2.667a8.972 8.972 0 012.667 6.407z" fill="#fff"/></svg></svg>