<?xml version="1.0" encoding="utf-8"?><svg viewBox="0 0 40 40" xmlns="http://www.w3.org/2000/svg" xmlns:xlink="http://www.w3.org/1999/xlink"><style>:root>svg{display:none}:root>svg:target{display:block}</style><svg fill="none" viewBox="0 0 40 40" id="phone" xmlns="http://www.w3.org/2000/svg"><circle cx="20" cy="20" r="20" fill="#FFD600"/><path d="M28.396 23.128c-1.225 0-2.427-.192-3.566-.568-.559-.19-1.245-.016-1.586.334l-2.248 1.698c-2.608-1.393-4.215-2.999-5.588-5.587l1.648-2.19a1.617 1.617 0 00.397-1.638 11.373 11.373 0 01-.57-3.572c0-.885-.72-1.605-1.605-1.605h-3.673c-.885 0-1.604.72-1.604 1.605C10 21.748 18.252 30 28.395 30 29.28 30 30 29.28 30 28.395v-3.662c0-.885-.72-1.605-1.604-1.605z" fill="#fff"/></svg><svg fill="none" viewBox="0 0 40 40" id="telegram" xmlns="http://www.w3.org/2000/svg"><circle cx="20" cy="20" r="20" fill="#08C"/><path d="M26.723 13.438a1.146 1.146 0 00-.928-.438c-.206 0-.423.046-.647.135L9.911 19.246c-.808.324-.917.81-.91 1.072.007.261.142.74.967 1.016l.014.005 2.137.642 10.407-5.586a.515.515 0 01.71.242.575.575 0 01-.086.631l-5.786 6.46-.165.703 4.93 4.17.007.006c.315.257.659.393.995.393.657 0 1.18-.51 1.332-1.3l2.496-12.952c.1-.52.016-.985-.236-1.31z" fill="#fff"/><path d="M16.373 23.321a.561.561 0 01.128-.247l3.797-4.238-7.046 3.781 1.6 4.807a1.9 1.9 0 00.395.69l1.126-4.793zM16.229 28.559c.38-.004.754-.172 1.081-.489l1.17-1.132-1.56-1.32-.691 2.94z" fill="#fff"/></svg><svg fill="none" viewBox="0 0 40 40" id="whatsapp" xmlns="http://www.w3.org/2000/svg"><circle cx="20" cy="20" r="20" fill="#43D854"/><path d="M25.049 22.115l-.009.069c-2.015-1.005-2.226-1.139-2.487-.748-.18.27-.706.883-.865 1.065-.16.178-.32.192-.592.069-.275-.138-1.158-.427-2.203-1.362-.814-.728-1.36-1.622-1.521-1.897-.27-.464.293-.53.804-1.498.092-.192.045-.344-.023-.48-.068-.138-.616-1.485-.845-2.022-.22-.536-.446-.468-.616-.468-.528-.046-.914-.038-1.254.315-1.48 1.627-1.106 3.304.16 5.088 2.488 3.256 3.813 3.855 6.237 4.688.654.208 1.251.178 1.723.11.526-.083 1.62-.66 1.848-1.307.234-.646.234-1.182.165-1.306-.068-.124-.247-.192-.522-.316z" fill="#fff"/><path d="M27.81 12.162c-7.048-6.814-18.712-1.872-18.717 7.74 0 1.921.503 3.795 1.462 5.45L9 31l5.808-1.514C22.054 33.4 30.997 28.202 31 19.908c0-2.912-1.136-5.652-3.203-7.71l.014-.036zm1.359 7.715c-.006 6.997-7.686 11.367-13.761 7.796l-.33-.197-3.438.894.922-3.341-.22-.344c-3.78-6.018.563-13.882 7.725-13.882 2.432 0 4.716.948 6.435 2.667a8.972 8.972 0 012.667 6.407z" fill="#fff"/></svg></svg>