<svg width="40" height="40" fill="none" xmlns="http://www.w3.org/2000/svg"><circle cx="20" cy="20" r="20" fill="#08C"/><path d="M26.723 13.438a1.146 1.146 0 00-.928-.438c-.206 0-.423.046-.647.135L9.911 19.246c-.808.324-.917.81-.91 1.072.007.261.142.74.967 1.016l.014.005 2.137.642 10.407-5.586a.515.515 0 01.71.242.575.575 0 01-.086.631l-5.786 6.46-.165.703 4.93 4.17.007.006c.315.257.659.393.995.393.657 0 1.18-.51 1.332-1.3l2.496-12.952c.1-.52.016-.985-.236-1.31z" fill="#fff"/><path d="M16.373 23.321a.561.561 0 01.128-.247l3.797-4.238-7.046 3.781 1.6 4.807a1.9 1.9 0 00.395.69l1.126-4.793zm-.144 5.238c.38-.004.754-.172 1.081-.489l1.17-1.132-1.56-1.32-.691 2.94z" fill="#fff"/></svg>