<svg width="40" height="40" xmlns="http://www.w3.org/2000/svg"><circle cx="20" cy="20" r="20"/><path d="M25.049 22.115l-.009.069c-2.015-1.005-2.226-1.139-2.487-.748-.18.27-.706.883-.865 1.065-.16.178-.32.192-.592.069-.275-.138-1.158-.427-2.203-1.362-.814-.728-1.36-1.622-1.521-1.897-.27-.464.293-.53.804-1.498.092-.192.045-.344-.023-.48-.068-.138-.616-1.485-.845-2.022-.22-.536-.446-.468-.616-.468-.528-.046-.914-.038-1.254.315-1.48 1.627-1.106 3.304.16 5.088 2.488 3.256 3.813 3.855 6.237 4.688.654.208 1.251.178 1.723.11.526-.083 1.62-.66 1.848-1.307.234-.646.234-1.182.165-1.306-.068-.124-.247-.192-.522-.316z" fill="#fff"/><path d="M27.81 12.162c-7.048-6.814-18.712-1.872-18.717 7.74 0 1.921.503 3.795 1.462 5.45L9 31l5.808-1.514C22.054 33.4 30.997 28.202 31 19.908c0-2.912-1.136-5.652-3.203-7.71l.014-.036zm1.359 7.715c-.006 6.997-7.686 11.367-13.761 7.796l-.33-.197-3.438.894.922-3.341-.22-.344c-3.78-6.018.563-13.882 7.725-13.882a9.04 9.04 0 016.435 2.667 8.972 8.972 0 012.667 6.407z" fill="#fff"/></svg>